<mxfile host="app.diagrams.net" agent="Mozilla/5.0 (Macintosh; Intel Mac OS X 10_15_7) AppleWebKit/537.36 (KHTML, like Gecko) Chrome/140.0.0.0 Safari/537.36" version="28.2.5">
  <diagram id="-Jylc1kf2nl2Jxtt9iz9" name="Page-1">
    <mxGraphModel dx="1878" dy="2852" grid="1" gridSize="10" guides="1" tooltips="1" connect="1" arrows="1" fold="1" page="1" pageScale="1" pageWidth="50" pageHeight="50" math="0" shadow="1">
      <root>
        <mxCell id="0" />
        <mxCell id="1" parent="0" />
        <mxCell id="C_XI61WrGr2y75dWy_v_-46" value="&lt;div style=&quot;&quot;&gt;&lt;div style=&quot;&quot;&gt;&lt;span style=&quot;background-color: transparent; color: light-dark(rgb(0, 0, 0), rgb(255, 255, 255));&quot;&gt;&quot;Users&quot; :&amp;nbsp;&lt;/span&gt;&lt;span style=&quot;background-color: transparent; color: light-dark(rgb(0, 0, 0), rgb(255, 255, 255));&quot;&gt;{&lt;/span&gt;&lt;/div&gt;&lt;div style=&quot;&quot;&gt;&lt;span style=&quot;background-color: transparent; color: light-dark(rgb(0, 0, 0), rgb(255, 255, 255));&quot;&gt;&lt;span style=&quot;white-space: pre;&quot;&gt;&#x9;&lt;/span&gt;&quot;User1&quot; : {&lt;/span&gt;&lt;/div&gt;&lt;div style=&quot;&quot;&gt;&lt;span style=&quot;background-color: transparent; color: light-dark(rgb(0, 0, 0), rgb(255, 255, 255));&quot;&gt;&lt;span style=&quot;white-space: pre;&quot;&gt;&#x9;&lt;/span&gt;&lt;span style=&quot;white-space: pre;&quot;&gt;&#x9;&lt;/span&gt;&quot;UserType&quot; : &quot;Driver&quot;&lt;br&gt;&lt;/span&gt;&lt;/div&gt;&lt;div style=&quot;&quot;&gt;&lt;span style=&quot;white-space: pre;&quot;&gt;&#x9;&lt;/span&gt;&lt;span style=&quot;white-space: pre;&quot;&gt;&#x9;&lt;/span&gt;&quot;Rides&quot; : {&lt;br&gt;&lt;/div&gt;&lt;div style=&quot;&quot;&gt;&lt;span style=&quot;white-space: pre;&quot;&gt;&#x9;&lt;/span&gt;&lt;span style=&quot;white-space: pre;&quot;&gt;&#x9;&lt;/span&gt;&lt;span style=&quot;white-space: pre;&quot;&gt;&#x9;&lt;/span&gt;Ride1 : {&lt;br&gt;&lt;/div&gt;&lt;div style=&quot;&quot;&gt;&lt;span style=&quot;white-space: pre;&quot;&gt;&#x9;&lt;/span&gt;&lt;span style=&quot;white-space: pre;&quot;&gt;&#x9;&lt;/span&gt;&lt;span style=&quot;white-space: pre;&quot;&gt;&#x9;&lt;/span&gt;&lt;span style=&quot;white-space: pre;&quot;&gt;&#x9;&lt;/span&gt;&quot;Customer Name&quot; : &quot;Name of the customer&quot;,&lt;br&gt;&lt;/div&gt;&lt;div style=&quot;&quot;&gt;&lt;span style=&quot;white-space: pre;&quot;&gt;&#x9;&lt;/span&gt;&lt;span style=&quot;white-space: pre;&quot;&gt;&#x9;&lt;/span&gt;&lt;span style=&quot;white-space: pre;&quot;&gt;&#x9;&lt;/span&gt;&lt;span style=&quot;white-space: pre;&quot;&gt;&#x9;&lt;/span&gt;&quot;PickUp&quot; : &quot;Default pick-up point of the user&quot;,&lt;/div&gt;&lt;div style=&quot;&quot;&gt;&lt;span style=&quot;white-space: pre;&quot;&gt;&#x9;&lt;/span&gt;&lt;span style=&quot;white-space: pre;&quot;&gt;&#x9;&lt;/span&gt;&lt;span style=&quot;white-space: pre;&quot;&gt;&#x9;&lt;/span&gt;&lt;span style=&quot;white-space: pre;&quot;&gt;&#x9;&lt;/span&gt;&quot;&lt;span style=&quot;background-color: transparent; color: light-dark(rgb(0, 0, 0), rgb(255, 255, 255));&quot;&gt;DropOff&lt;/span&gt;&lt;span style=&quot;background-color: transparent; color: light-dark(rgb(0, 0, 0), rgb(255, 255, 255));&quot;&gt;&quot; : &quot;Default drop-off point of the user&quot;,&lt;/span&gt;&lt;/div&gt;&lt;div style=&quot;&quot;&gt;&lt;span style=&quot;background-color: transparent; color: light-dark(rgb(0, 0, 0), rgb(255, 255, 255));&quot;&gt;&lt;span style=&quot;white-space: pre;&quot;&gt;&#x9;&lt;/span&gt;&lt;span style=&quot;white-space: pre;&quot;&gt;&#x9;&lt;/span&gt;&lt;span style=&quot;white-space: pre;&quot;&gt;&#x9;&lt;/span&gt;&lt;span style=&quot;white-space: pre;&quot;&gt;&#x9;&lt;/span&gt;&lt;/span&gt;&lt;span style=&quot;background-color: transparent; color: light-dark(rgb(0, 0, 0), rgb(255, 255, 255));&quot;&gt;&quot;ETA&quot; : &quot;ETA from Pick-up point to Drop-off point&quot;,&lt;/span&gt;&lt;/div&gt;&lt;div style=&quot;&quot;&gt;&lt;span style=&quot;background-color: transparent; color: light-dark(rgb(0, 0, 0), rgb(255, 255, 255));&quot;&gt;&lt;span style=&quot;white-space: pre;&quot;&gt;&#x9;&lt;/span&gt;&lt;span style=&quot;white-space: pre;&quot;&gt;&#x9;&lt;/span&gt;&lt;span style=&quot;white-space: pre;&quot;&gt;&#x9;&lt;/span&gt;&lt;span style=&quot;white-space: pre;&quot;&gt;&#x9;&lt;/span&gt;&quot;Map Data&quot; : &quot;Map information that represents the route of the pick-up and drop-off points&quot;,&lt;/span&gt;&lt;/div&gt;&lt;div style=&quot;&quot;&gt;&lt;span style=&quot;background-color: transparent; color: light-dark(rgb(0, 0, 0), rgb(255, 255, 255));&quot;&gt;&lt;span style=&quot;white-space: pre;&quot;&gt;&#x9;&lt;/span&gt;&lt;span style=&quot;white-space: pre;&quot;&gt;&#x9;&lt;/span&gt;&lt;span style=&quot;white-space: pre;&quot;&gt;&#x9;&lt;/span&gt;&lt;span style=&quot;white-space: pre;&quot;&gt;&#x9;&lt;/span&gt;&quot;Payment&quot; : {&lt;br&gt;&lt;/span&gt;&lt;/div&gt;&lt;div style=&quot;&quot;&gt;&lt;span style=&quot;background-color: transparent; color: light-dark(rgb(0, 0, 0), rgb(255, 255, 255));&quot;&gt;&lt;span style=&quot;white-space: pre;&quot;&gt;&#x9;&lt;/span&gt;&lt;span style=&quot;white-space: pre;&quot;&gt;&#x9;&lt;/span&gt;&lt;span style=&quot;white-space: pre;&quot;&gt;&#x9;&lt;/span&gt;&lt;span style=&quot;white-space: pre;&quot;&gt;&#x9;&lt;/span&gt;&lt;span style=&quot;white-space: pre;&quot;&gt;&#x9;&lt;/span&gt;&quot;Price&quot; : &quot;Price for the ride&quot;,&lt;br&gt;&lt;/span&gt;&lt;/div&gt;&lt;div style=&quot;&quot;&gt;&lt;span style=&quot;background-color: transparent; color: light-dark(rgb(0, 0, 0), rgb(255, 255, 255));&quot;&gt;&lt;span style=&quot;white-space: pre;&quot;&gt;&#x9;&lt;/span&gt;&lt;span style=&quot;white-space: pre;&quot;&gt;&#x9;&lt;/span&gt;&lt;span style=&quot;white-space: pre;&quot;&gt;&#x9;&lt;/span&gt;&lt;span style=&quot;white-space: pre;&quot;&gt;&#x9;&lt;/span&gt;&lt;span style=&quot;white-space: pre;&quot;&gt;&#x9;&lt;/span&gt;&quot;RefId&quot; : &quot;Payment reference Id&quot;,&lt;br&gt;&lt;/span&gt;&lt;/div&gt;&lt;div style=&quot;&quot;&gt;&lt;span style=&quot;background-color: transparent; color: light-dark(rgb(0, 0, 0), rgb(255, 255, 255));&quot;&gt;&lt;span style=&quot;white-space: pre;&quot;&gt;&#x9;&lt;/span&gt;&lt;span style=&quot;white-space: pre;&quot;&gt;&#x9;&lt;/span&gt;&lt;span style=&quot;white-space: pre;&quot;&gt;&#x9;&lt;/span&gt;&lt;span style=&quot;white-space: pre;&quot;&gt;&#x9;&lt;/span&gt;&lt;span style=&quot;white-space: pre;&quot;&gt;&#x9;&lt;/span&gt;&quot;TaxInfo&quot; : &quot;Tax information&quot;,&lt;br&gt;&lt;/span&gt;&lt;/div&gt;&lt;div style=&quot;&quot;&gt;&lt;span style=&quot;background-color: transparent; color: light-dark(rgb(0, 0, 0), rgb(255, 255, 255));&quot;&gt;&lt;span style=&quot;white-space: pre;&quot;&gt;&#x9;&lt;/span&gt;&lt;span style=&quot;white-space: pre;&quot;&gt;&#x9;&lt;/span&gt;&lt;span style=&quot;white-space: pre;&quot;&gt;&#x9;&lt;/span&gt;&lt;span style=&quot;white-space: pre;&quot;&gt;&#x9;&lt;/span&gt;&lt;span style=&quot;white-space: pre;&quot;&gt;&#x9;&lt;/span&gt;&quot;PaymentMode&quot; : &quot;Mode of the payment&quot;&lt;br&gt;&lt;/span&gt;&lt;/div&gt;&lt;div style=&quot;&quot;&gt;&lt;span style=&quot;background-color: transparent; color: light-dark(rgb(0, 0, 0), rgb(255, 255, 255));&quot;&gt;&lt;span style=&quot;white-space: pre;&quot;&gt;&#x9;&lt;/span&gt;&lt;span style=&quot;white-space: pre;&quot;&gt;&#x9;&lt;/span&gt;&lt;span style=&quot;white-space: pre;&quot;&gt;&#x9;&lt;/span&gt;&lt;span style=&quot;white-space: pre;&quot;&gt;&#x9;&lt;/span&gt;}&lt;/span&gt;&lt;/div&gt;&lt;div style=&quot;&quot;&gt;&lt;span style=&quot;background-color: transparent; color: light-dark(rgb(0, 0, 0), rgb(255, 255, 255));&quot;&gt;&lt;span style=&quot;white-space: pre;&quot;&gt;&#x9;&lt;/span&gt;&lt;span style=&quot;white-space: pre;&quot;&gt;&#x9;&lt;/span&gt;&lt;span style=&quot;white-space: pre;&quot;&gt;&#x9;&lt;/span&gt;&lt;span style=&quot;white-space: pre;&quot;&gt;&#x9;&lt;/span&gt;&quot;RideId&quot; : &quot;Identifier of the ride&quot;,&lt;br&gt;&lt;/span&gt;&lt;/div&gt;&lt;div style=&quot;&quot;&gt;&lt;span style=&quot;white-space: pre;&quot;&gt;&#x9;&lt;/span&gt;&lt;span style=&quot;white-space: pre;&quot;&gt;&#x9;&lt;/span&gt;&lt;span style=&quot;white-space: pre;&quot;&gt;&#x9;&lt;/span&gt;&lt;span style=&quot;white-space: pre;&quot;&gt;&#x9;&lt;/span&gt;&quot;CreatedAt&quot; : &quot;Timestamp when the ride was confirmed&quot;&lt;/div&gt;&lt;div style=&quot;&quot;&gt;&lt;span style=&quot;white-space: pre;&quot;&gt;&#x9;&lt;/span&gt;&lt;span style=&quot;white-space: pre;&quot;&gt;&#x9;&lt;/span&gt;&lt;span style=&quot;white-space: pre;&quot;&gt;&#x9;&lt;/span&gt;}&lt;/div&gt;&lt;div style=&quot;&quot;&gt;&lt;span style=&quot;white-space: pre;&quot;&gt;&#x9;&lt;/span&gt;&lt;span style=&quot;white-space: pre;&quot;&gt;&#x9;&lt;/span&gt;&lt;span style=&quot;white-space: pre;&quot;&gt;&#x9;&lt;/span&gt;...&lt;br&gt;&lt;/div&gt;&lt;div style=&quot;&quot;&gt;&lt;span style=&quot;white-space: pre;&quot;&gt;&#x9;&lt;/span&gt;&lt;span style=&quot;white-space: pre;&quot;&gt;&#x9;&lt;/span&gt;&lt;span style=&quot;white-space: pre;&quot;&gt;&#x9;&lt;/span&gt;...&lt;br&gt;&lt;/div&gt;&lt;div style=&quot;&quot;&gt;&lt;span style=&quot;background-color: transparent; color: light-dark(rgb(0, 0, 0), rgb(255, 255, 255));&quot;&gt;&lt;span style=&quot;white-space: pre;&quot;&gt;&#x9;&lt;/span&gt;&lt;span style=&quot;white-space: pre;&quot;&gt;&#x9;&lt;/span&gt;}&lt;/span&gt;&lt;/div&gt;&lt;div style=&quot;&quot;&gt;&lt;span style=&quot;white-space: pre;&quot;&gt;&#x9;&lt;/span&gt;&lt;span style=&quot;white-space: pre;&quot;&gt;&#x9;&lt;/span&gt;&quot;UserId&quot; : &quot;Identifier for the driver who served with these rides&quot;&lt;span style=&quot;background-color: transparent; color: light-dark(rgb(0, 0, 0), rgb(255, 255, 255));&quot;&gt;&lt;/span&gt;&lt;/div&gt;&lt;div style=&quot;&quot;&gt;&lt;span style=&quot;background-color: transparent; color: light-dark(rgb(0, 0, 0), rgb(255, 255, 255));&quot;&gt;&lt;span style=&quot;white-space: pre;&quot;&gt;&#x9;&lt;/span&gt;}&lt;/span&gt;&lt;/div&gt;&lt;/div&gt;&lt;div style=&quot;&quot;&gt;&lt;div style=&quot;&quot;&gt;&lt;span style=&quot;white-space: pre;&quot;&gt;&#x9;&lt;/span&gt;...&lt;br&gt;&lt;/div&gt;&lt;div style=&quot;&quot;&gt;&lt;span style=&quot;white-space: pre;&quot;&gt;&#x9;&lt;/span&gt;...&lt;br&gt;&lt;/div&gt;&lt;div style=&quot;&quot;&gt;&lt;span style=&quot;white-space: pre;&quot;&gt;&#x9;&lt;/span&gt;&quot;UserN&quot; : {&lt;br&gt;&lt;/div&gt;&lt;div style=&quot;&quot;&gt;&lt;span style=&quot;white-space: pre;&quot;&gt;&#x9;&lt;/span&gt;&lt;span style=&quot;white-space: pre;&quot;&gt;&#x9;&lt;/span&gt;...&lt;br&gt;&lt;/div&gt;&lt;div style=&quot;&quot;&gt;&lt;span style=&quot;white-space: pre;&quot;&gt;&#x9;&lt;/span&gt;}&lt;br&gt;&lt;/div&gt;&lt;div style=&quot;&quot;&gt;}&lt;/div&gt;&lt;/div&gt;" style="rounded=1;whiteSpace=wrap;html=1;align=left;fillColor=#fad7ac;strokeColor=#b46504;shadow=1;textShadow=1;spacingLeft=11;fontFamily=Verdana;" parent="1" vertex="1">
          <mxGeometry x="1800" y="-990" width="710" height="499" as="geometry" />
        </mxCell>
        <mxCell id="C_XI61WrGr2y75dWy_v_-52" style="edgeStyle=orthogonalEdgeStyle;rounded=0;orthogonalLoop=1;jettySize=auto;html=1;exitX=0.735;exitY=0.412;exitDx=0;exitDy=0;curved=1;exitPerimeter=0;entryX=0;entryY=0.5;entryDx=0;entryDy=0;shadow=1;fontFamily=Verdana;strokeWidth=2;" parent="1" source="C_XI61WrGr2y75dWy_v_-51" target="C_XI61WrGr2y75dWy_v_-46" edge="1">
          <mxGeometry relative="1" as="geometry">
            <mxPoint x="1750" y="-730" as="targetPoint" />
            <Array as="points">
              <mxPoint x="1550" y="-730" />
              <mxPoint x="1710" y="-730" />
              <mxPoint x="1710" y="-740" />
            </Array>
          </mxGeometry>
        </mxCell>
        <mxCell id="A3KikVknTNXmm3vZ6eDe-1" value="User Record DB" style="shape=image;verticalLabelPosition=bottom;labelBackgroundColor=none;verticalAlign=top;aspect=fixed;imageAspect=0;image=data:image/png,iVBORw0KGgoAAAANSUhEUgAAAgAAAAIACAYAAAD0eNT6AAAAAXNSR0IArs4c6QAAAERlWElmTU0AKgAAAAgAAYdpAAQAAAABAAAAGgAAAAAAA6ABAAMAAAABAAEAAKACAAQAAAABAAACAKADAAQAAAABAAACAAAAAAAL+LWFAABAAElEQVR4Ae29B7wlRZn+PwJDznmGMEMYco4iICCKkQVxQWUR9Wfa1VVMa/qvggHXVQyArmtAMa+gSBIUUEkqQ1ZyzkPOeQj+n4c5B86cOffeE7q73ur+vp/Pc0+fvt1Vb30rdHV1VZ9JkzAIQAACEIAABCAAAQhAAAIQgAAEIAABCEAAAhCAAAQgAAEIQAACEIAABCAAAQhAAAIQgAAEIAABCEAAAhCAAAQgAAEIQAACEIAABCAAAQhAAAIQgAAEIAABCEAAAhCAAAQgAAEIQAACEIAABCAAAQhAAAIQgAAEIAABCEAAAhCAAAQgAAEIQAACEIAABCAAAQhAAAIQgAAEIAABCEAAAhCAAAQgAAEIQAACEIAABCAAAQhAAAIQgAAEIAABCEAAAhCAAAQgAAEIQAACEIAABCAAAQhAAAIQgAAEIAABCEAAAhCAAAQgAAEIQAACEIAABCAAAQhAAAIQgAAEIAABCEAAAhCAAAQgAAEIQAACEIAABCAAAQhAAAIQgAAEIAABCEAAAhCAAAQgAAEIQAACEIAABCAAAQhAAAIQgAAEIAABCEAAAhCAAAQgAAEIQAACEIAABCAAAQhAAAIQgMDEBF408SEckSmBVeX3OtKMDq2i7UWlRaSlpMWl+aUHpdnSo9Kd0i0t3ajPv0sXSw9JWD4ElpSrm0sbS9Ol1aTVpRWlxaQFJZeBZ6WHpUekx6W7pes7dIW2nf9PSRgEIFAjAnQA6pOZGygpL5V2amlKgUn7h8K6VpopndKSOwpYHAIry5XdWtpWn2tJRdVvdwwukM6R/tjSk/rEIAABCEAgEYFtFO83pFmSL9JVyXeNviB8UlpdwtIQmKZoPyVdKDlPqsp/jxj9n7SP5BElDAIQgAAEKiDgof0Dpaukqhr88eJ5Rn78SdpPmixh5RLw0P3+0umS2Y+XN1X87375cKi0voRBAAIQgEAJBNZVmEdIHnqtomEfJg7PHfio5OfPWLEE/Lz+Y9Jt0jB5U/Y5HoH4g7SLhEEAAhCAQAEENlEYv5Yi3O31exHxXeF/SAtL2GgEzPDj0gNSv/xTH/dH+bqDhEEAAhCAwBAEltY5h0mefZ26QR82/hvl+5uloiajKajGmJn5scpN0rD8U593rHxfXcIgAAEIQKAPAm74/Yz3Dil1A15U/L9XWrgQCEKfNk3HebVFUfxThuOlpQdJnruAQQACEIDAGAS8Rvt3UsoGu6y4PXP8XWOkm90vEHiPNv3OhbLyIVW4XjXieSwYBCAAAQh0EdhF36NO8CryovEbpZNJgl2Zr69+KZOX1hXJOlpYjyl9dAIFAYMABCBgAvNJn5NymuQ36oXlUqWXu0FBaJmX0F0ujco1l/N/oLQu1Eo7HxCAAAQaScDPRX8u5dJwF+mnVwrs2MhcnzvRO+lrTjP8iyoDf1G6V5gbBd8gAAEINIOA38d+slRUg5pjOE8o/W9oRnb3TOU/aa+HxXPMuyJ8vkZpn9GTDDshAAEI1JTA8krXuVIRjWjuYXiZ4741zefxkvUW/fNpKff8G9X/28VgvfFA8T8IQAACdSHgd6d7+HPUhrNO5/tC2KSRgD2U3pzf71B02fOSVzoBgoBBAAL1JTBZSavrMr9RLwp+xfEr65v1z6fsZdryr+uNyqtu5/s10ms+T4kNCEAAAjUi4Nn+TZ3w1+/Fyu8KqPOd4IZKXx3X+PebvxMdd5X4LCNhEIAABGpFwEv9JmoA+f+kSVeK01K1yvk5ifGrna+WyOPxGfitkQvMQcZfCEAAAvkT8LBvk9b5j3qRO168PGJSF3NaTpRG5dKU8/3zwhgEIACB7An49b6zpKY03kWl8wPZ5/wLCfgg+T9w+d/nBXxsQQACEMiPgH/Yh0l/w3V+/CMy6+SX5fN47DkNTV7rP2yH8F5xW2UemuyAAAQgkAmBt8nPYRtAzpuzXHL+TPK6l5t+lj2TMjB0HfAvIroTjUEAAhDIioAnfd0pcSEfjcG7s8r1uZ19L/k/cvl/z9xI+QYBCEAgPoHD5CIX/9EZ3CWOOa4KcAfwbsrAyHXAjwKWkzAIQKBgAjkPrxaMotDgNlFo35PqNJO9UEADBObfTHA5PXWAcyIcerCc2DWCI5n7sIj8X1jyXBoMAhCAQHgCv5KH3P0Xx+AJ8ZwSPtdfcNCT1/xmQ8pAMQxmi2WdXxD1QslhCwIVEuAOtXjY6yrI1xcfbKNDXEip91K6XOzDcnTBXJzNwE+/QvtTGfiJixCAQMMJHKH0c+dXPAO/QtfP1aPbsnLQvlIGimXgH4xaO3rm4x8EciLACECxubWqgtuv2CAJrUVgCX3mMCP8X+WnfcWKJeB5IB5ZwSAAAQiEJHCgvOLOrzwG/rGYyOvC7ds1lIHS6oB/RZEfCxIEDAJFEGAEoAiKL4Sx7wubbJVAwG8GfEkJ4RYV5A4KiGHqomjOG45XA7xp3t3sgQAEhiFAB2AYar3P2Ua76/Dq2t6pi7P37XFcmceTt86zhx1FE4Bx0UQJr7EEIg+n5pYp35DDBwR2+nz5dop0nnS1dLvkyWq2JaWp0gzJHZndpC0lrD4E6pT/GyhbrqhP1oRMyeLyamNpU8k3Nl7aaq0s+cVcnpPhSbmenPmI9KDkRzT+3YvbJLcxfhxmedv7MAjUkoA7UrOkaM///YM6X5eGGZb2Of5ZVn7IJl6+9lvO6pr/n1K5xIol4LctvkH6H8mdq6J/vtwdgJ9Lnsi7voRBoDYEXKD7bZSrOu4Y+eRVCaPa6grgWKkqv4mnGNZ1zv8zRi3UnP8cgRX01xfkP0q+k6+y7rlD4JuTrSQMAlkT8NKvKivPeHG5Iv97CTQPUJhVNxLjpZP/9S5zTcj/2SqLfmyFDUdgF532a+kpKUI9ulJ+fEbyIwYMAtkR+IU8jlCR3PjvXSK9fRQ2nYAYed2rvDUp//+lxHJex6D9zP4t0iVSr7ITYZ9f+f09yXMOMAhkQyDK8/8y7vy7M8EjAREaC3yYNx+alP/Pqhx66Nod3skS1puAV3rtK/kuO5c64/kHR0sbSRgEQhNYVd5FqFh+5luVHaeIIqQZH17Ihybnvzvgn5NcF7EXCHglzzlSrvXEjyg8T2ApCYNASAJ+npa6gnm2d5WN3zTFx+qA9PneLnfk/5y88COQ30i7SV6Z01Tzq6i/KZlHu4zk/Okly/tLTc5TJR+LSMCzaFNXrq8lAHNYgHSn5h4lfvJ/3jp4rcrnx6XlE9SNlFG+WJF73X2UslmkH6cpXSunhEvcEOgmcIh2FFnIBw3Lz0LX6naqgu+eqDOorxxfPDPyf3ymfjnNkdK2Up3Nz/o/L9Xlrn+stsLLB3eWMAiEIHC8vBirsFax32/2S2UXKuIq0kgcY3Mm/8dm011uLlB5fae0WKoKU1K8fiPfSVJ3euv63Z2cz0g8EhCEUcy9Rmw0AiuNdvrIZ58ycgjDB3Dq8KdyZkEEyP/+QW6hQ73MzHeRfstlHd5IN0PpmCm9WmqKeUnjZ6UfS5Obkugy0kkHYHSqi48exEghnDvS2aOd7BnGWFoC5P/g/D2r/APSZdIfpVyXEm4u38+W/DiuibafEu0R2LqN6DQxL7NN803yPOVQm38YJZV5nW7KtBP3pEnkfzFl0EsJ/Qx9tVSVacB4X6rjH5CoA3NGQPxbBhgEKidwr2JMWQn9/C+VLaOIU6aduOf8Ihv5X1w59PPl9lLCqCOk28nHh6l7c7U9fgzCSIAgDGJMohiEVu9jZ2t3yudQCyp+vzAjhTnuJ1NETJzPEyD/n0dR+MZ1CtFzBo6Q7ik89OEC3FinnS4tO9zptT7rD0rdayXapFpnc6zEubClvBNN3flImXbiTt/5bEIeRFlKOE1tzR2J25vo+f0T8eHGVhCwagg0+RGA70KiNwh19y/lI6Am5r+XEr5Lqnq42ZONL6a+9dXeeIkg1geBqM+4+nA9zCGPJPZklYTxp4w7YbJDRZ0yD1LGnSoTtlDE35Vukw6TqlhK6Dta39luKmETE3AHYKeJD+MIOgCjl4HUHYAZoydh6BBSxj200zU7MWUepIw7dTZ6KeH7pfZSQv9U9uSSnDpA4e5ZUth1DNbvCfiZ1LTXQA+cl3QABkY2zwmpOwDbzONRdTvq/nrV6kgOHxP5Pzy7Is703fku0i+lm6SilxJupjC/JGGDEfDo1I8k5w8GgdIIpP5p3PNLS9nEAV+kQ+r+jD16+sj/eGWwvZTwlaofo9xkLaTzL6eOjdTG+GVBGARKI3CIQk59kVi7tNSNHfA6AdKdmnuU+Mn/9HVwrLJwjerJR6VhXlTzWerYyG3rLDFcUsJ6EBild9ojuEbuujpAqv0ssmrzq1SxGATI/xj50MsLd86+It0qeUjaP9fbj3ly4Sf6OZBjxiUwRf89aNwj+CcERiCwi84dq/df1f7H5MPqI6Rh0FOn6wSvja4qfcQzPmvyf3w+0cqPf0XzXdJ4SwlPo34V1r48JZYbShgECifgySYRGphjC09Z7wA9qeaEIGmOwD2KD+R/jHo4SHl4QPWo11LCV1G/Cm9TPUkTg0ApBG5TqINU/LKO9XKhsu1DiqAs/wl3NLbk/2j8UpW/Z1Wn/iTtI3ni38VSKl/qGq8nZs6QMAgUTuDnCjFCxXEhdyNSlr1JAT8jRUgrPsybD+T/vExyKyceFcjN51z89QucMAgUTuA9CjFKJfBFoOg7QQ/7+86fi3+cfB6rvJH/8fNorLxjf7l594TasKkSBoFCCayn0KJVXr+fYFoBqZyuMHjmHy9/Jypv5H9+eTZRnvL/0fP00wW0iQQBgbkI+A45yjyAzkbCs8MPl7xmf1DzOd+UmO0/eqPTmSdVbpP/+eZdleWkSXFdMWhDWOfjfeHCiiHwNQXjYfKo5rf2nSqdI/nlJH5BxkOSzS/K8NCYL/p+ve9u0mYSVh8C5H998pKUjEZgS53upZiNNzoAxRWBrRTUecUFR0hjEDhe+/cY43+pd39fDrwjtRPED4ESCPiV06dIbuOulm6Xum8gPMt+G8k3EL7IRrWvyjG/nRGDQKEErlRoTRpOS5FWT7iMajvIsRRMiBPuZZSBR1Wevy4N86ppn3Oo5MdQZfg2Spg3yycMAoUT8O9Qj1IwOXd8fneK7yKF51pxAXpEzY9XyEcY5F4GjlE5XrWAquE3lB4bsE74cWfjjd8CKLYIHKHgniw2SELrIPAdbXtSYlRzo/+DqM7hFwT6IOClvv5tib0k/37BqOa77T2lD0oOO4rtFMWRlH7QASiWvlcC/KTYIAmtg8BfOrajbv6vHHs4qnOZ+/Vg5v5Hd98X6DdLXv1TtPlxwL5SlE4AHYCic5jwniPgoSW/jCX3IcCI/p8prn5VanT7ihyMyC9nn7yKwXm/j/Qnya/PzTk9EX3/dzEt2w5QBBHSXsToRtmsCD9TAkcFKeQRKlrRPhyZQZnwD0T5rWNFp73J4b2yK9/9c7mHSQ/AuZBy5mf+VdlxiihCWfbSZwwChRPYSCE+JUUo5HX04ROF51jxATIKUFz5P3Wc7FlM/3uX5HXddSzrVaTJs/2LmPCnYPqyaToqwuqAnfryloMgMASBb+icKipvE+Pw8O8bh8iTKk9ZQpHdLjUxf4pMs0dSfLffj3ntuSeK+oJWpA91D+tr/cAt+BiP3qTm+s6C00RwEHiewFLa4gJQXiV/RHy3eJ52zI33yK3UjVzu8R84RNYup3P8oheWZE5c/tyZXmsIxqOe4rlSqcvml0dNBOdDYDwC++ufqQt5neP3RB4/b49q88sxr1yocx6UmbZLxW6hETLXq5xeKf1GYmJu73LoN/ulstSPbY5NlXDibQYBvxjmJKnMRrLpYfsVpYsGLk6+02FIevA64Pc9bFJgvq6msD4vzZKaXmc6039wgYwHDeq/E+eFfxcFg0CpBFZQ6H4/QGelY7tYHr8W38jvtPgA+T9w+S9rSdpk5YWXEv5R8vB30+viHmKQyl6viFPy9wgTBoHSCeysGBiCLLeyf7H0XBw+AndOjpdSNnY5xe1ltFX8UBlLCSdN2mD4Yj3ymV4tlbJc3jhyCggAAn0S+IyOS1nYmxC351xENU8KvVJqQj6MksYLxKjqRzrtpYSOexTfczx3aaU5lS2jiFMyuzdVwom3eQR8R+PXBKcs8HWP20vGdghctNaTbw9SBsasA34+72f1KW1bRX6k5DkIda8vTp8fiaSyBRVxSsb8bkuqnG9ovK5sTAost9LfI8ZrBy5fu8i3plxcBmnc7xeXzQPlm0ds3i1dJg2SjtyObXIHwC9rwyBQKQEPN86UcmsocvLXjbYb8Kj2T3LMjU9OTMv01aMiWwfNLM/f2E36jVTHeTwpHwEsK6ZllquJwn5I8WMQqJyAX1RCJ6Dcyv87MV6g8pztP8J/0aF0AiZNuk8cXtI/tqRH1nEp4YYJiW6suCe6SJf5/zsTpp2oG07AIwEnS2UW8KaHfXjwMuaRgAjvRE9VTvzM3xeB3MzD5ntLdVhKuGdC+Hsp7lRlz/FekzDtRA2B5ybgMDGw3EbgfcHL2Y7yz8+/UzaEKeK+XGleM3je9OOelxIeKj0gpeA4apxf7CeRJR3z34mZnVlSuggWAn0T8OoALxGs4/PFURunIs73MLtfBxvZ1pVzfilJEenNIYxjldYlI2fIEL55RM8/LpPbUkK/STOVXaSIU5bXX6RKOPFCoJvATtrhd9unrBB1jdt3ZylfeNKd172++wLyc6mueeB0uTP2n1IVL/lRNMkst6WEKVbNrKPcSV3Wv5yshBAxBHoQWF77fiulrhh1jP86cTXf6Oa7yFyHk8crN37e+uLo8Av2z5N9PyI57eOxSf0/P8Ko2r6pCFOn+21VJ5r4IDARAd8d7Sd5glTqClK3+P3MbyEpunm2eV3eF+FHW4dJi0eHXqJ/rtO7SVGXEnoi6uolpr876OnaEeFdGFt1O8Z3CEQh4GekX5M8bFq3C3HK9BwpnrnYG+Xo9VJKXqPEfbZ83ywX2BX5uari+ZwUrYPveRlVmDtDJ0ijlKsiznW7WvUrp6vgSxw1I7Ch0vNLyXdSRRR8wpg06RMZlRGPWHgY+b6M8v9S+frPUt2f9SuJQ1vEpYQHDJ2a/k/8kA6N0Aad17/LHAmB9ARmyIXvSn7ffYQK1MuHs+SbH19cG9hH+/2M5DXIOdkScvbD0s1SL/YR9nlW95ul+SSsfwKp18O3y45vMvbp3+2Bj3yTznDda8eX8vOrA3vPCRAIQGCqfPi0dIWUsgK143aH5EhpC6ltXht9v9Q+JuLno/Jvy7bDGX36znFf6Q9ShMbUP6jyf9IOEjYcAXeYbpAi1BN3AooeCfBIkO/8I5TXNuM95A8GgawJ+KLrnuwtUrtgV/H5rOI7R/LQ9EpSL9tVO2dLVfgzbBxedrlKL+cz2bea/PTjDK/lrrJx9UXiFOkd0rISNjqBgxTEsOW4jPOOkz/TRk/WpOkKI8Iz/05GnvToZbcYBGpDwOtq3yX9VPKFrbPAF7F9m8L0XAQ3+r7w9GP2p4i4ywzDF886TAZaQenwyMCPJI8OFdkh8AX/EukwyXdOS0tYsQS2VnBllvNhwvaF8nDJbcug5nO81O9xaZi4yzzHnRtMBJikU99iMFVJcyWc0SHvc8/XFzw34l6aNVl6WHIj/5B0l3S3dKN0nXSldJF0uzSMHaKTPjLMiRWec4zi2lvyyEZdzHMGNpU2kaZL7rRZU6RFpIWlJSW3AQ9KsyWXgzskjyi5w+f16857T+pzQ46VR2B+Be26F3VExeXgVMkjfy4XsyS3FzaXo3Z7s622d5Mir/54q/z7sYRBAAIlE/Dzzd9IZfboiwj74JI5EDwEJiJwtA4ooiwTxtgc3cl15xiDAAQqIuA7zplS9IbpnRXxIBoI9CLwbu2MXkdy9+97vcCzDwIQKJfAKgq+jLkJRTZIXtGwQ7kYCB0CYxLwI5pnpCLLNGHNzdOPKDAIQCABgc0V5yNS5EbpHvm3dgI2RAkBEzhZilw/cvbtDIoYBCCQlsAeij76Xc5l8nGptJiIvaEE/lXpzvkiG9n33Rtapkg2BEIR+Ki8idxQ2LffSQuEooYzdSfwn0pg9HqRq39excCqt7rXINKXDYHvytPojcnh2dDE0dwJeCndzVL0OpGrf6/OvYDgPwTqRMDvHzhNit6gvK9O0ElLSAJ+B8CJUvS6kKt/PPsPWexxqukEfNdziRS5YfELkl7b9Iwi/aUS+IpCj1wHcvbtKbGN/FKiUgsWgUMgOoE15OCdUuRGxm/K2yg6SPzLksD+8jpy2c/dN/9WCgYBCAQm4LX3XoMfubG5Tv4tH5ghruVHYHu5HL3cR66TE/l2o/jy1r/86gUeN5DAG5Vmv4t/okqd8v9ny7+FGpg3JLl4AtMUpH93IWV5rnPcXmq8S/HZRogQgEBZBD6ngKM3SkeWlXjCbQwB/wjXxVL0sp6zfwz9N6Y6kdC6EPA63Z9K0RueT9QFOOmonIDL+C+l6GU8Z//8i4WM1FVetIkQAqMTWFhB/EWK3AD5UYUfWWAQGJTAF3VC5LKdu29+lff0QTOF4yEAgTgEVpQrN0iRG6NH5d+WcZDhSQYE9pWP0ee5RK5zE/n2pPjunEE5wEUIQGACAuvr//dLE1X6lP+fJf9WnSAd/BsCJuDOojuNKctr3eP2zyljEIBATQi8UunwizwiN1zny79Fa8KbZJRDwJ1EdxYjl+PcfftsOVlHqBCAQEoC71Tk0RunX8vH+VJCIu6wBBaRZ+dK0ctwzv4dGjb3cQwCEBiZgCt49AbKk7swCHQS8Iz/o6ToZTdn/74tvuaMQQACNSXgu+vjpOgNlUcrMAi0CRykjehlNmf/viW+jLy1SxufEKgxAb/S829S5AbLr3X1a40xCOwtBMz4L6++fp4iBgEINIvAVCX3VilyJ8DrkNduVraQ2i4Cm+v7I1Lkcpqrb17q9/Yu3nyFAAQaQsDLqaI3rlfIx6Ubkh8kc24CK+vrzVKuF9jIft8trjvNjZtvEIBA0wjspQT7xz4iN1a/l38LNC1jGp5ev8Xyr1Lkcpmrb378N13CIAABCEzy+/ijN2aHk0+NIeCZ6D/LoExeKx9vycDPzrp9ifxdTMIgAAEIPE/gh9rqbCgibr/veW/ZqDOBT2VQFu+Sj2tIkyW/ljiX0Yqn5eu2EgYBCEDgeQILaut0KeKFv+2T32ToNxpi9SXweiUt+iMpr1DZvkcWrKV9/yldJEVetXCZ/PMjFgwCEIDA8wSW1dZVUvuCG/HzAfm3wfMes1EnApsqMQ9LEctd2ydf2PfrA/pyOmZP6UvST6TTJd99t8NJ/Wm/MAhAAAJzEVhT3zy8mbqBGi/+G+Sff+UQqw+B5ZWU66Tx8j3C/0ZZM++LboQ02AePsvQaxdBuDAIQaDKBHZV4D3NGaax6+XG2/FuoyZlUo7T7OfrpUq98jrRv1N+pcHm9NFA6vcSWRwGCgEEAAnMTeJu+Rmp8e/nyo7ld5lumBL6XQVm7QD4WMXt+C4UzO1B6eRSgzCjCvHQF601gVe1eR5rRoVW0vajkX/haSlpc8ruoH5J89/m4dK90U4eu1LZ/Mta/bY+VT+C/FMUnyo9mpBg8Y9x+YnkS+A+5/eXgrvuNmZ45P6sgP33R/XhBYY0aTPtRwMxRA+J8CLQJeJLWv0q/kFxpet29jbLvGoX5c+k9kjsXWDkE3CH7lTRKXpV9rhswv8wIy4/A6+Sy86/sMjJK+H5Tpl9HXKR52N0z8Ufxq8hzWRVQZO42NKxtlO5vSGVc8Ccq7F528wVpPQkrloBHac6VJsqDlP9/VP5tWWyyCa1kAhsq/AellOVmorjdOfFM/jLMIwqsCiiDLGFWRsB33wdKkZaOeXLY26UintcpGEwEpkjR38nuYVo/VsLiE/CM/+uliS7Aqf9f9jC9HwWkTmM7fndG3CnBIDAhAb/w4lDpcaldgKJ9+u7CFcxr27HRCfiOzWvwo+Vzpz8Xyj86fqPndZkheMb/H6XOfIu4fWSZEFphL6RPVgVUAJooiiGwiYLxUpjoz+06GxR3BPx4YEkJG43Aa3V6pGHLznxub4+6VGs0Qpw9EYEcZvyfoUQsOFFCCvo/jwIKAkkw5RFYWkH7jv8pqd3Q5vZ5u3x/t+SJbdjwBA7QqdHz/uDhk8eZJRL4YAZlx48mViiRQa+gIz0K8M3d9r2cZF/zCHhp49ukO6XojX6//nmOgFcpYMMT+JZO7Zd3quP2Hz55nFkCgVcqzOijR15evH4JaZ8oyIV1gGfip6or3fHaF/uENZiAe8EnSd2Fow7fPXfBd7Lu4GCDE5hfp5wgRS4LftnKzhKWnsC6csEX18jlxZ2T1yRExQuCEsIn6rkJvExfUyznq7qBOF7p9IxkbHACS+mUSBOYepWdu+XjmoMnjTMKJOBJuFdLvfIn0r5/KzDNwwYV6VEAqwKGzcWMz/Pz8c9JOU3yG7UR8TM/z3DHBicwXadEfzzk4Ux3VrDqCSygKE+TRq2jZZ/v+U0RjEcBEXKhoT541uvPpbIrW8TwH1K6d29ovo+a7K0UwKNSxHxt+/R7+eeLEVYtgW8punYeRP38nXyMVDZ4FFBtGSU2EfB7+E+RolbSKvzykNfbJGxwAm/SKc9KVeTTsHF8c/BkccYIBN4bvDy4HPkRVsTlwTwKGKHgcepgBJbX4dFf9Tpsoz/oeX708Y7B8HF0i8Cn9Tko76qPfx+5VQmBXRVL9CXDfnS1RiU0Bo+ERwGDM+OMIQj4zv88qeqGOHJ87gS8awiWTT/FKyp+IkXOW1+UvBwNK4+Af/HTv+IZuRw8If+ir3XnBUHllVFCFgG/ktPPvyJX1FS+uROwl4QNRsDzSP4kpcq3fuL1fI+NBksWR/dJwMPpHlbvJx9SHeNHVW/pMz2pD4v0KMBtYvROU+r8yiZ+3639SEpVCXOI9zHx2S6bHI3j6HJy5Ropch7fIP9WjIOsFp7Mr1ScKEXOd/v2+YxoLyRfI3WorpA/fjyBZU7AS/2iV9QI/kV+Thi5CK4v56K/+OUs+egGFiuGwDcUTIQ6O54PR8tH3/zkZNEeBfxQ8F4i+fExliGBl8lnD+eMV1H43wt8PEHSQ9vYYARersP9Nr7IZcmjYNjoBN6pICLns33zXKdFR09qkhAiPQpo57OvIVdKv5Cc/6tIWHACHvacJbUzkc/+WHw1eL5Gdc+TKaOXsU9GhZeJXy+Vn08Gz+db5N/UTHj2cjPaqoCx6vTFcv5gad1eiWBfWgIe+mLS33AXJE8cem3a7Ms29kPk+VgNRoT9vpNhwudwxWsNnXZ38Px9RP5tPlzyQp21Y3DO3XX5TPm7v7RIKIoNdubtSnt3JvG9fya3i59/FhkbjMB8Ovw3UuSy5gmf2wyWrMYfvYQI/F2KnK/u3O1Zg5xaVmn4Y3DWY5WDe+T3QVLEFy7JrWaYL1ye0DZWJrG/PzbfbEZxKTyViynEC4OXv1vlH88x+8t6d+qi/xqk27SP9Zec0Ed5Qu21Uu5t9F1Kw0clRgQEoWo7TBHmXoAi+O87CpYGDld6p+i0m4OXQ3dS3FnBxifwZf07Qn0cz4cjx09CFv99hbyMvppmvDzo9b/rlKZXZkG/Jk5uonQ8JfXKDPYNzuU8sfR8CmxwAlvoFD+TjVzufi3/fIeL9SbwVu2OnH/27Qwp95U771Ma6txu/1Tp86R0rGQCv1L40Stsbv69oeQ8q3PweyhxHkmJnOdfrHMGjJA2r//2a3Qj552Hy/0yqlzNNxc5jLAUUQbuUFp3yTWjcvDbyzGiN7ZFFKSqw/D61wVyKABBffSzwKrzbND4vIQRe4HANG26wR6UY5XHPyj/NnrB5ey2fPE/VKqSWeq4/CusB0mMuglC0XaEAkydwXWN30tcsOEJfFenRi4bvtPdYfjk1erMxZUar/GOnF8eLvcz81zNF8AfSpEZl+nb8Up7ri9qClnmPKM5+gs6yixQZYd9ifi6x44NR2CyTjtVKjufRgnfS5jWHi55tTnLZfyX0igcqzj3vRkTN+P/yYBx2fk4UwxyfnwTqggeSIEqvdHaJVSO5+fMMnLZPzBSdsMySviXyb+l8kNbmMcHB88f562HzXO2r8j5Ucponc79u1jk/NbGMOXwKgpV6ZXKL7jBRiOwlk6/W4rciPkNmk2c87Gv0u23YEbOm5Pk3/xSrvYhOR6ZbwrffO1aIdcMjeD31hSqSiqVJ7CsFiHDM/fBz9qjzy5v2kugtlGePC6luAD0G+el8i/nN8x5NRGTtHuXsXPFxnNPsrFIz4O/IWoHBCZ3vnw7RfKa+qslv2b3IcnmCu0hoBmSG6HdpC2lqPYxOeYhPGw0Avvp9B9LkerRoCnynJuHJZfl+1vb9+rTjxF8sfLnNZInrEW2VeWcG+ApgZ28S769WLohsI/jubaF/nm2xJvxxqbka8Tu0uyxD+E/3QTcgEb8xb9H5dfXpWEmVfkcP+d7TOr37qCq4y6QT1gxBD6nYKrKt1TxuJPgMvNf0o5StEcLi8ond9BT8eknXo8WbS/lap7odoPUT1qbfkzTRt5GLtPrByxYx8gn31WMaqsrgGOlaJVivVETxvnPEXDn9f+kaPlbpj/3Kb2eZf9maSEppZn/UVKZ6R01bM9J8GhRrublfr+XRuXQpPP3yTWzU/j9r4EK19Py5d9LgODHGw47SiXwzNXPSNtKOU9IkvvJbWF58FcpSt5W6YeHtT0yME1KYQcq0irTO0xcX0gBpsA4/yMDxsPkS5nnPChmfiSM9UHgFzqmzMzoN2xfoPfuw99hD3GvMFInoM3Fz3x9R/f/pFUkbHACK+mUG6Q206Z9ulx7pKvKYW7X1egz/o+WjznPEdlM/vsRUNPKcxHpPVfcuLkShIksyvP/Mu78u9PukYAiCleZYVwiHw+RXiH57hbrj8CGOsw9/zLzJoew/fhsnf6QDX2UJ6R5jk5kHp4w7PkJudqCctxtQWTG0X37QK6ZX5XfqwYpYG60qrLjFFH0gtv2z5MYT5Y+KHmuBjY+gVfq354x3+bX1E/Pgj5cWkEq2qYowFukyGztn1cG5WyflPORGefgm1fX+BqHjUFgF+1PnZG+k6gyk6YpvoirA/rJh5vk+3elf5aWlrB5CbxXu/ph2YRjvLRw33kRDb3HI1LnSJHZPSL/Nh86hTFOXFNuRB9hiVwGOn37VYwsjenFe+RWJ6wU219LgOawAOkelbWf+54vfUl6uTRZwuYQOFQfo/Kt0/lHiceyIxYOP0v/aXCufknOniOmM8LpHhGtU/lLnZZtImRqRB/8rDll5ngS0VoJwPgZacp0lxE3kwlfKEie/HNiDfN4lHLj0aOdpWHtUzpxlPirOPdjwyYu0HnbyZfokyuryMsi4zgpUP6GcuV4eVMk6EHD8kSdVHahIh7U35yOb/pkwiWUv3+reR4PWh59hzzMRdJ31dFfQfsD+VgHO0uJGDRfOX5iZu5YYV0EZup7ysJzcJc/VX7978Rpr5L7Y0prEycTrq50R1nlUmV+TxTXt8Wl3zcKbqpjH5YmCjPl/8+Qf541n7vtogSk5FjnuE/IvXCU4f9liQvcHmUkqs8wX5847Skrm4eDvyc1YTLh1konE6rmvbD8VlwWl8azFfXPG6WUZXWiuK+Vf8tJdTD/iuRE6eX/wzHynCnfEGAdBHwhSFmgNujwperNjRKnPSX3zrhdMf4sfUbaVvLz87qZOzrRh7A786SqbT8G80W+ly2knWdLVfkyTDxe5bBeL+cz3LeJfH5WGoYD5/TH7fMZlotSXfbEsZSFJ+VStmUSpz0l9/HirutkQtZV967rF6ke9KqHPwxeP/y+B78sqy72TSVkvHrJ/0bn48eB/T76qku5GjcdTyYudCmXrvmZIZVqYgbtyYS7iZfXgeds0S9qqcqjR4AW68jYj2o7lS/9xvtvHf7mvrmIEuDRjH7TznHDs/LLwrAWAToAwxekJlbCnCcTvkhl/idSE/OtnzSfKjYe9n+t5MdC/ZyT6hi/56FO5pc1pWLZT7xerXWw5NUgfmzr0VM/KrS8vaHk/31R8rtJ+gkz1THfkn9Yi0CTHwH4xSipCmFd4s1pMmGTVn0MW77cCXgweL04Sf75wlMn+7USM2yelXWeJ85+XVp7CNA+x5003zCU5d+w4d4sn3wzgIlA6kmA7jmmso0V8bCFiPPmZRd5MuG7yetalPVLlY9LpmowSorXw/+PSJHalGPkz6oFpNez7o8NljZz3qKAtNUiiMsSZ46HjVLZXoo4UqWrmy9RJhO6kxnxTqRu+V12eu5UPq6RqrEoMd7XKeyy2fUbvjvx/15CWg9QmJEeK32shDRmGeRMed1v4SjjOD8zSmUMCVeb9ykmE3rS4t+kMsouYVbH9Qnl4fapGoqS4z0kSPn0BXrvEtO6j8KO0gnwIxdMBI6TUjZknjCSyrz8KWXamxy378ireDOhO5hN5lyHtHtt/H5SXe1cJSxCPpVx59+dZx4JiJDWW7oda+r3CL3PYSaZjJpf6wQpiBEqQwQfyphMuJny2GvFI6QPH4bPhy+MWtkDn79YkDLqZ/5VWeqbznZdXKWqBEeOJ8LkKM8Wrdp46cbwDXK7ApX16WFCr0sf5c2EC+h8jy6V5SPhVsP2aOVhnWdsbx2gjHq2/6pSVTZNEUWYk/O6qhIcOZ6XybnUjZkLgwtFVeaJRI9LqdNN/P3lwcPKqxMkd1Y9q7gf+5gOgm/eDC5QHvoOuc72/5S41OX0awkAHxYg3VU88kiAdrAoPQySugA6fi8VqcJ8N+GLSYQ048Nw+TDRZEI/Uopwh0H+Dpe/5uZntFOlulvqR7CeX7FWAsgRHsF+NUG6Q0Z5m7yK0Fh5gkjZ9iFFECGt+FBMPvhC3zmZ0B28P5LHWZdxr4nfXGqC/VKJTNkWnJcQ8oWJ085KgFbm/zxxRrQrgJ/97tPyqYyPNylQfhEubYPTzuuyPu9SHpcVNuGWz9b1M+W7Qcpod8YL86zE5dWv901lqZdhp+z8PMd8vlTku+I9o+t7qq/zK2J3RooeCfBdoe/8fyZFYS5XsBIIrFBCmARZHQH/YmNVjwOrS9XYMU0Z+1+V/MdLEFPZOakibsW7ZOL4w0Tv39OOdndznHyaVgCh6QqDZ/7x8jdaecOf9GXkBwXU99yCSD1itUFCYBsp7pT17taEaQ8Vte+Qo8wD6CwQfr57uOQJI4Oaz/FSP2b7p61knfnJNnkxVhnwKOSCg1byGhz/kNIwFpMq9i+dkOEyidN+f8K0Pxe1L7xRzEtBPEwe1S6SY6dKHja6RpolufLYPJTjGcO+6G8r7SZtJmEQgEB8AtfJRdfbe+O7WriHTylEv7MilbnTZR9SmOP2z9GnMqfbPiSzSB2ArUQh+aSIZDlBxBAol8D5Cv4UyXXsaul2qbsDO0P7tpHcgd1SaoI9oERuJ13ZhMT2SKMvgCkvQo67qR2A2Ur7Qj3ypLG7XAmrGHYiDjg3oQz4DWtfl/xegkHN5xwq+TFYXVn5wvMKqcnmUY+U+ZvyEcCyidOefMQp2oz0nze5JpJ2CBRI4DcKa13Jj9WuHSJcn3OA5Am6xw1xfg6nfEBOnpqDoyX66HcepLRVEkaeMm4n++GEaX8u6mgdgCPkVcpnMqnzo8z4fSe3t/QN6YoyIyLspAS8jv390l5SEbOMb1Y4e0oflBx2XewwJeTbdUnMCOlI3QHwY6dUljJupzk1+1Tcx433e/pvyiGpusbtSZad5nfav1M6Wrpfqmu6m5Quv8jKnbyybB8F7DhyZ3qS0uB3fmCTJs0UhJT5+cWEmZD6RUCp30OQEP3YUa+jf9WhkUlZqbrj9t3/ymMjf64xfIn+/1nJhRL+aRvF7vzr93sVPy7ixwL9+hPxuEvlv1ftYHMI+PFOynzy5NRUdpEiTpn236RKePR4j0qcMSkLRRlxf3XADPfkGN/t+ZGMh5HL8Ikwi+V6jPKpKkt90Ri27NwpQGtUBSmTeA6Rn8PyLOo8Tzit2nyjWZT/w4bz5aoTnUt8G8nRpwJk0LAZG+k8v+lr1Jm2zo+PSL+XHpcipQ9fJk3ybP9VpapsmiLyqFJO7J+Qv9tXBSijeN4dIB8PTcDrmwHS7Uew2BgEPFktpwYmqq+u4EXaIgrs5dKXJA/f+ec8o6a9KX51z+9QlpRunkSXC1+X0beUTiTPCF4WIB/dmZxWIT6PAkW4kdmpwjRnF9VS8tgvK8mlkYnopy/QZU92YjJh2jLqi9taUtUWYQi13zr3harhZBSfl8L1y7HM446tiJlffndCkDRPqSjN2Uazf5CMKrPglxW2hzw3rjjn3dlgMmG1DWrKt2demEH99CoXN/rY2ARu07/KaocGCdcTTMu2DymCQXwq69hbyk5oHcJ3xT0pSIaVVRDKCvdTAQoAkwnLb2wOTpjPqZdRTVR33DlaNCGfXKL+uRydiGUV//fqI08+LsvepID9Losq0jJRHD8pK5F1C3cFJShKD3WiTI3y/z+L2QIBCwKTCYtvfPZImM+vV9xRyny3H77DmpqQTU5RvydQProTUPRIgG8kfecf5eLvssoEQEHo13bWgaxN76+x9VKnKmeE95uH3cd5MuGrpK9Ll0vdDTjf+2OygdilMnfoIuaT37C2eSooGca7XsB8PE4+TSuA5XSFEeWZf2ddmVFA2hoVxGeU2k6AbM/Lw52kXTMtFUwmnDc/+ynjoy7xHKW4LBOwTvoub89REtXAc32HHHGU1asDDpc84XRQ8zle6hdhtn93Pb5p0MRw/JyJPH5u0g2T7y8wKXroLFW5m18RM5nwhXwdr4xPTpVJindBaTzfUvzvYwl55By1l5KmyK9+4/SEU885eb3kkSfPL/JjTsvb3reX5GMukvoNN8VxX5F/2BAE3NidJKXItOhxuuDX1RZXwnaXviO59xw9L6r0jw7AC+XhSJUNbDgCW+m0Ksttk+PabLgs4iwTWEyaKTW5AHWn3SMjHsZrirm3z5sJ59SBlI8AfOfVXRZTfT9DvnhEAhuewJU6NVX+NSVez3fCRiSwnM6nEzCnsv5YLDxk3lRbRAlv8mTCDRNmvN8zEaHhvlZ+uE3ARiPAPKvyy/N/jpZFnN0m4JGAk6UIDVAqH45Q+udrA+HzOQJNm0yYcsKbn7mmKvvteO+XD57Fjo1OwG8F9AvE2mz5LJaF2fL2v9HL6fMh+PlnUycGflFpb9Kw//OZPsBGEyYTuhykMs87SXmReFbxvyJV4msa7/cS52nK8lR23P9b0zKTNFm+CHroykvgys7ACOE/qXS+VcIGJ+Bn1vtIHjm5VYqQn6P6cL7SkcpSz7a+PlXCaxzvOkpbU9rSUeveIOeb6Vo1LjfJk7aTPKhLoz5WwbpJafTyOKwYAnWZTLh2MTgGCsUXirHKaVX7jx3IYw7ul8BRAfK2qjJUVTy/6Bc+xw1PYHmd+lupqkytMp5jlC6/eAUrh0DOkwkPLQfJuKH6JStVlv9ecX12XA/557AE3DF+SurFnH2Dc5ktlusPmxmcNxgBPxLYT5ol1aGw3qN0vF3CqiXQOZnwPkUduSw9Jv/sb1U2XRFFeMOaJyFi5RD4uoKNXOZz8o0X/5RTRscNdUn992tSrj3ZZ+X7kZJHNbC0BHKYTFjVcLg72CdIERrgVdMWi1rHvpRSd3uQfI5Q1ob14TYxXKLWJSV44rxO+pdSThNbTpG/Wwfn2mT3ok4mPKCCTPmQ4hi2MSzyvEsrSGvTo9g/SF4XWW6qDmvfpheiKOmfIUe+K0Vd5+o7/tOkXSQsLwJ+RFN1w9IrPndyvcqhLHuTAo7yk6pfLSuRhPs8AY/2nCT1Kmvsm5iLR8rMEAtEYKp8+bR0hRShED8iP9wx8cQbLE8Cftw0W4pQntwJKHokwI2Y7/yjXPzNmfX/glCBraA4PIwdoWzn5MMtYsbbKSsooKNEsYVO9p2EM6vKwuW1/O4d7iv5jYZY/gTOVBKqLEMTxXWc/JlWANbpCiPKM/92mh+UTwsXkDaC6I/Azjosp0eo7XKS6tPzznbsDy1HRSHgdc3vkn4qFf0+AReIiyXPrH2ttLiE1YvA/6fkpGpwxorXqwMOl1y2BzWf46V+EWb7d6fPI2ZYtQQ+o+i684HvvZl8qtqsGT42nk+MzW6q/uVG0HMH2vI+37EvKi0t+ULuGeK+I5ktPSzdId0sedjsGukiyROWPPcAqy8Bv4/ej5WimsvhqdI5ksvlLOkhyeZHGO3yvq22d5M2k6Lai+XYzKjO1dQvXyv8w2P71TR9RSXrRwro7ZI7RxgEINAgAn9VWrkrKpcBs//TVajJippJgWOX7xPFZ4F02TN4zPyS3ODMOAMCYxH4wVj/YH9hBL5XWEgENCiBp3TC3tK5g57YgOM9svZGyXMlMAhAoIEEPJT+iMQoQDkM7hJbJs2mr1jLyQU/gqGcz2HgkT+/GwSDAAQaTsCrSmgYy2Hw8YaXrUjJd0eMxwFz5tXwpr9IJRNfIJCQwMqK27Pv6QQUy8C/iUFDm7Bg94jaz7uPkJpa1j0p0vMiMAhAAALPE/iWtpraKJaV7v94ni4bkQh4dYCXCDbpPQGeC/EpyWnHIAABCMxFYBV985LQsi6GTQv3MrFccC7CfIlGYCc5VPT7UyKWc780jpf8RCt9+AOBYAQ+Jn8iNmC5+eTfyNglWN7iTm8Cy2u3l8LlVsb69fd4pc0TIDEIQAAC4xLw89G/S/02LhzXm9UPx6XMPyMS2F1O+WVodSnTfmnW/hJD/oKAQQAC/RHYSYdF+gGd3BpkX0RYXtVfWYt2lJfEfk3y8/Lcyl3bX7/d9SsSk08FAYMABAYn8F86pd2g8Nk/C184th8cN2cEI7Ch/PmllNMkQfv6C2l9CYMABCAwNAE/CviLxMV/MAafHJo4J0YksIacOlSKvETWv9LqpX3rShgEIACBQgispVDuk+gE9MfAE8nmK4Q8gUQj4B+d+rTkH86KUh8uly//KU2RMAhAAAKFE9hZIfoOI0qjF9UPv2een8sWhAbYFkrjVyUvrau6PN6kOP18f3MJgwAEIFA6gTcpBi9rq7qxyyW+68RmpdJzgQgiElhTTnmm/XekG6Siy+ztCvMo6QBpS4kZ/UAQAQwC1RL4pKL7YrVRZhGbG2i/YMWdAAwCflSwjjSjQ97n3yBYVFpaao8U+Qe4HpA8v+BRycv2rmnpan1aLl8YBCAAgeQEPioPir7DyTk8D8e6occgAAEIQAACtSfwb0ohjwMmTbpSHFarfW6TQAhAAAIQgEAHgbdq+wkp57v3UXw/T2lfsYMHmxCAAAQgAIHGENhOKfXzyVEupDme6/XWfpaLQQACEIAABBpLwEPgM6UcL+SD+uwRj3c3NqdJOAQgAAEIQKCLgN8YeKCU87vTJ+oM+MeRvPYbgwAEIAABCECgi8DW+u43k010Mc3p/34B0kHSghIGAQhAAAIQgMAYBCZr/4clr23O6ULfy9czlYaNJQwCEIAABCAAgT4JeIa834w2W+p1cY28z8P9r5MwCEAAAhCAAASGJDBN5x0u+U1nkS/69u0yya905cd8BAGDAAQgAAEIFEHAIwIHSjdIkToCz8if46VXSLxjXRAwCEAAAhCAQBkEfHe9q/QT6SEpVWfgYsX9ack/d4xBAAIQgAAEIFAhAc+sd2fgEMnD72V2Bh5W+H+QPi6tLWEQgEDGBBiuyzjzcB0CPQgsq31btbSFPteVVpeWlAaxO3XwddK10gXSXyTf8T8tYRCAQA0I0AGoQSaSBAj0QWAZHbOqtJK0kOTX8C4hecTAP6f6oORJhv68QfI+DAIQgAAEIAABCEAAAhCoEwFGAOqUm4OlxXeEy0seMl6uJd8VLi35c+HW9iKtbR/fua2vz5knpC3V2m5/+Ln0Yu0vHZ++w/Rb4TrNk9g8i9x3nH4NbvsYvzPe+/x/35X6+bO/+9Pf/ZKcu6V7W/J5GASqIuDy3a43K2jbdcB1Z/GWPLrifX704n2uT+2RF7/oyfvml7ofzfg417Nue1Q7/D6ITnM98E9Kt+1+bbjePC51bruueL/riLf92a4392n7HsnHYw0jQAegPhnuvPTw7iotrdb6nKLPzou8Gy1/d+NTJ3Oj127U3DHwL+zdIc2S/Dz7ttbnrfp0Y4pBoJuAL8p+TLKi5Hrk+jRVWllyPfKF3vXHHWdfqOtk7oS7M9CuQ/70d9cf6xbJdahdj/zoCMucAB2AfDLQdw3TpRmSZ2BPk9w4ucGyvO07b2xiAm7YbpJu7Pj0tuWJbx5pwOpHYAklaS3JdWd6h9rfPcqFTUzAIxHuFLgzbXnb9eka6VrpRsmjeVhwAi8K7l/T3PNduWds+yLf1jra9gV/uuROAFY+gdsUxdUduqq1fYM+n5awuAQWkGtrSOu25PrjuuTv7iRj5RPwxf9GyZ0B1yN3DNq6WdsebcACEKADkC4T/HxwU2mzjs+NtL2ghMUk4Oeol0l/ky6R/t7a9nApVj0BD8e7/mwsbSK5Pm0g1W14XkmqjXn04FLp4pZcl6wHJaxiAnQAqgHu5/FuqDrluxT4V8O/7Fg8YnChdG6HHig70oaFv4zSu01LW+tzC2kVCcufwD+UBI+utTsF7U/PO8BKJMAFqHi4nhXvu5Adpe2ll0ruAGDNIeAGzUOf7Q7BWdr2iEHnjG19xcYg4Drku/kdpPZF38P4tFeC0CBzB+BM6c+S69DlEnVIEIoyKtToJP3Msd1Y+YK/i+RZwhgEOgk8rC8zpdMkN2jefkrC5vxy4PoC4frzcullkof3MQh0EmjXIdefs1vyYzlsSAJ0AIYDt6ZOe11LvktZZLhgOKvBBO5X2s+QTpJOlm6VmmQeFXuN9GppJ2lpCYPAIAS89NcjAydKv5Wul7ABCNAB6A/W/DpsM2l3yRf+LSUMAkUScOPlhuwEyR2Duo0OdNchP8On/REErDACda9DhYFqB0QFbJOY93Mp7fIdii/6r5T88hwMAlUQ8HsKjpWOkv4gPS3laJPl9K7SG6U9JE/kwyBQBQHXod9L7lB7lI1VBoLQbXQA5ibi5UOvkPaW9pJ6vc5WuzEIVEbAjwo8MnC09Dsp+siAJ/C9RHId8oV/JQmDQEoCTyryUyXXoV9Lj0qYCNABmFMM/Bz/HdIbpCXm7OIvBMIR8KuNfyx9X7ommHd+4c47pf0lLvrBMgd3nifwsLbcCXAd8mTCRluTOwArKOffKvnCv16jSwGJz42AlxmeIX1POkZKNRPaI2b/LPnC/1Kpye2Jko9lRuAK+XuE5E61fz8EawCBTZRGZ/rjkhtSBIOcy8C9KsOHSJ5VX5Wtroi+Jvk5a87s8J38cxnwtcAjAr42YDUl4OVGnlBFpYdBHcuAX7F6pLShVJZtrIB9t+S46siQNJGvp6lsv0rCakDAQ5Jetuc3slG5YdCEMvCsyrpnPu8gFWU7KiBPRHTYTWBIGsnnmSrrvnbwWEsQcjTP5r9AojLDoKllwBftUUYEfMfvJVRN5Ue6yXtfQ3wtwTIhsL789PppKi8MKANzfnrV9WG61K+togO/Iz0twRAGlIE5ywg37bcCcVz1BPwq0W9LNFo0WDRY85YBr33+nOSZ+2PZIvrHF6THJBjCgDIwdxnwteV/JL8kDgtEYHf5cotEgYUBZWD8MnCt6skuPequX97jZVHwgwFlYPwycLvqyf496lB2u3Kf4OC1/N+X/ik78jgMgXQEPJnPdzKfbLnwJX3+mzRf6zsfEIDAxASO0yF+B8Y9Ex8a84icOwCemPEjaUpMtHgFgfAEbmp5OC28pzgIgZgEZsmtt0qnxXRvfK/mH//fIf/ru5SDJU9SWiKkhzgFgTwIeN6MhUEAAsMRiRczMQAAIOxJREFU8DVoP2kh6XTJj0+ysdxGABYX2Z9Ie2ZDGEchAAEIQKAJBE5WIt8sZfPLgzl1AFYXWK9r3ljCIAABCEAAAtEIXCKH/AKhm6M51sufXDoA0+W8X+O7Zq9EsA8CEIAABCAQhIAv/rtKXnET2vw8PbqtKwfPkrj4R88p/IMABCAAAY9W+5o1yls4K6EYfQRgqiicI1X5S2eVgCcSCEAAAhCoNQGvEHixdEvUVEYeAfDsyt9KXPyjlh78ggAEIACBsQj4Bta/pRH2zYFROwD26/+kzSQMAhCAAAQgkCOBjeT0z6SQo+3zByX6Yfn1vqC+4RYEIAABCECgXwLr6EAvDfTj7FAWsVeyuQj9VfKLFbByCTyg4O+T7m/J373d+fmkvj8sPS49IT0kPS35GL/0wp/d9oh2PNW1c7K++z0O3ba0drgc+tPH+NGPf5Rm4da2y8Eykv/f63M57Q87xCbfsPoScNmn/tQ3f4tMmdtRzwe4uMhARw0rWgfAQ/8XSJuNmrCGn3+P0u+JJze3dLc+PSHlLunO1rb3uVDWwdxJWFHyMzd/riRNkfxbEX7NreeReGauOwsYBCYiQP2h/kxURob5/0U6aSvJv8URwqJ1AN4hKt8PQSa2E74T9xrTq6VrpOuk9sX+Jm0/JmHzElhUu6ZL7Q7B2tqeIXmIztuMOglCA4z6M1wmU3+G49Z5ln886IjOHSm3I3UAPDzsi9nKKYEEi9vPjS5tyW+YukoyI9/dh+lFypc6mEefPErgDsG6kt84uVFLS+oTy48A9ae6PKP+9Mf6Dh3mNsaPSZNbpA7AAaLxjeRE0jngO/jzpPOlv0uXSb6bx9IT8GMEdwY2kTyEZ7mzgMUhQP2JkxfdnlB/5ibia91hc+9K8y1KB8C9R9/dehi2CeY7kz9LMyVf8C0/n8fyIeC5Bu4IbC1tK71EYjKiIFRg1J8KIJccRZPrj0dx15OSj+JG6QC8VjBOLLnApQz+VkV+puSL/tnSpVLyzJcPWHEE3In1KMGO0vbSTpInJWKjE6D+jM4weghNqz+vUYb41wMxEThS+keN9IjScqr0cWlLKUpHS65gFRJYU3G9WzpKul+qUxkvMy3UHxUW7Lnff6lr/QkzETB1OXPPz0vTymxQqgjbM/IPkXaSFpAwCHQSmKwvO0tflTwEWEWZzCkO6o8KBTYmgbrVH08G9LWv8ebnpzk1VJ2++p0FH5M8axyDwCAE1tfBn5AukjrLVJO2qT+DlBiO7SRQh/qzTWeCmrr9PiU8p0bvCvn7GclrxzEIFEHAHcgDpSulnOrCML5Sf4ooMYTRSSDX+vPezkQ0dfs7SvgwDUmV5zwuH/0c9+USz/MFASuNgOeMuE48LFVZxsuMi/pTWnEh4C4COdWfb3f53sivZynVZTY+o4R9nXz7gLREI3OGRKck4JcPfVC6XhqlDKc8l/qTsgQ1O+4c6s+Zzc6iOamPOCHKzyb3kpikQQlNTWB+OfAG6UIp5cV8kLipP6lLDfG3CUSuP5742niLtALAb9/zhZ9h/sYXy3AAXCbdEbhcGuRiXOWx1J9wxQaHWgQi1h9f+xpv/mGOKhupXnE9Kh8OkhaUMAhEJuAlpn6VqN+G16ssp9hH/YlcYvCtk0Ck+uNrX1KLMMS9UFICRA4BCEAAAhCongDXPjFPcccyVpwewtxT4hFA9ZWBGMcn4DLpx1PRHwFQf8bPR/6bhkDU+pOGRqBYx7oYp9w/U3xeJ9ERCFRQGuqKR+l2l86VUtaJQeKm/jS0sAZMdvT6ExBZtS4N0rBUfazvtt4pLVwtEmKDwKRFxMDvQfeLc6ou90XFR/2hIKcikEv9ScUnTLxFNTZlhvOAaPnlLJuEoYYjdSXgt5p9SbpbKrNMVxk29aeupTVeunKrP/EIVuxRlQ1REXGdLT5+heMKFXMiuvoSWFFJ8yux/yIVUUYjh0H9qW85TpWynOtPKmZh4o3cWI3n21Mi+FvprdJyYWjiSC4Elpejb5dOllyWxitrdfwf9UeZjg1NoC71Z2gARZwYYZKbG7fc7RklwK80Pk46XvLrWzEIdBNYSzv2aGl7ffotZdikSdQfSkE/BOpYf5Jeg5NG3srxOnQAuguvOwCntXSqPv0MFGsegcWU5O2kl7fkHyrBJiZA/ZmYUROOaEL9SXoNThp5qwTXsQPQWTmf1hcv4fIIgfVniQ6BINTQllaadpB2bGlrfS4gYcMToP4Mzy63M5tYf5Jeg5NG3iqdde8AdFfCZ7XjEsmToc6Tzpf8O/AeBsXyIeDh+/WlrSRf6H3h30iK8HZNuVFbo/7UI2upP3PyMek1OGnkrXLctA5Ar+r7iHb6197cGbhIulTyGurZEpaegF/ZuYHkC/zmki/6/lxcwtIToP6kz4PxPKD+jE0n6TU4aeQtJnQAehcOD3365yLdGfi75FGCa1p6XJ9Y8QT88pAZLfnufuOWvI+hfEHIyKg/1WcW9Wdw5kmvwUkjb7GiAzBYoTGvW6R2Z8CfN0k3t/bfoU9sbAIr61+rS6tJ06X2Bd+fq0oR6oTcwEoiQP0ZDSz1ZzR+3WcnbW+SRt4iQQegu0iM9v0Jnd7uDLijMEu6qyVv393avkefdbLllRi/EMSa0rE9Vdu+2Fu+8PNaZ0HAxiRA/aH+jFk4SvhH0mtw0shbMOkAlFCq+gjyKR1zr+QVCfe3Pju3ve8hyQ2iHzn4OavP8TEeXvX/bA9L/t5pj+nLk507tO3ngIt27fOw+hKtfUvq0989E3iy5OfrPt7n+X/LSP5f96f3+UVMPgeDQFUEqD9Vka53PEmvwUkjb+UrHYB6F3BSBwEIQAACvQkkvQazZKl3prAXAhCAAAQgUGsCdABqnb0kDgIQgAAEINCbAB2A3lzYCwEIQAACEKg1AToAtc5eEgcBCEAAAhDoTYAOQG8u7IUABCAAAQjUmgAdgFpnL4mDAAQgAAEI9CZAB6A3F/ZCAAIQgAAEak2ADkCts5fEQQACEIAABHoToAPQmwt7IQABCEAAArUmQAeg1tlL4iAAAQhAAAK9CdAB6M2FvRCAAAQgAIFaE6ADUOvsJXEQgAAEIACB3gToAPTmwl4IQAACEIBArQnQAah19pI4CEAAAhCAQG8CdAB6c2EvBCAAAQhAoNYE6ADUOntJHAQgAAEIQKA3AToAvbmwFwIQgAAEIFBrAnQAap29JA4CEIAABCDQmwAdgEmT3iE0Z0n/6I2IvRAIR8Bl1WXWZTe1UX9S5wDxD0ogUv0Z1PdCj39RoaENF1jqC2+bwVpyf/+Wpg+XFM6CQKkEblDoP27p+lZM1J9SkRN4jQhErj9JMLcvfkkib0UapQHrZLChvuwtvVlap/MfbEOgYgI3Kb7jpKOlP0vd9aX7uw6p1Hq1IdSfSrOAyMYhkGP9GSc5xf6rV+UtNoaJQ4vYgHV6vYW+vEF6jbSpFIGZ3MBqSsD14WLpJOkY6UJpPKP+jEeH/zWNQN3qT6n5F+FiFr0B68yAqfry6pZeoc8lO//JNgSGJPCgzjtVOrml2wcIh/ozACwOrSWBptSfwjOPDsDwd/TzKzc2k3aQtpfcIVhawiAwEYFHdcBfJQ/pny2dKc2WhrGcOgCd6aP+dNJgexAC1J9BaI1zLB2A4TsA3VgX0I6tpO2kF7c+V9MnBoGbhcAX/Jmtz/P1+bRUhOXaAehOO/Wnmwjf2wSoP20SBX/SASiuA9Ara/zIwJ2BraXNW1pRn1h9CdyppF3U0nn69EV/llSW1aUD0IsP9acXlXrvo/5UmL90AMrtAPTKylW0052BTaT1pfUkrzRgPoEgZGQPyderWrpCn3+TfOEv82Kv4OexOncA5kmsdlB/elHJbx/1Z06eJb0GJ428VWab1oCNVVWX0T+8fGoDac2W/H1dyc9LsTQEPCHvMsnr7i/v2L5B26nLrlxI7kOENsQcqD+mEM+oP+PnSdL6kzTyFpfUjWgEBuMVkUX0zxnS6pLnFPgOyJ+d2z4GG5zA4zrlFum21mfntp87XiP5mMhG/Rk/d6g/4/MZ5b/Un1HozTk36fUnaeQtdqkbMD+jnzl6PiYNYXnF3u4YrKrtKdKy0nItrdDxfXFt19keUeLubemejm3vu0O6VfLF3Rd978vZtpXz5yROAPUncQYUHD31p2CgEwSX9BqcNPIWmNQdAPdi3yX9bIKMqsu/F1JC2h2DdifByxe93/MQFm1te0jV+/zd+xeW3HmwJktt8+OJ7vkL7fPax/jzMenJzh3a9nPAZzr2eSmcl/g8LPlY/7993v2tff7u/f7/A5Iv4ve1Pr3dHYd21dLeolR9V3K+pDTqz5zlv9SflKVw8Lij1J8I1+DB6RV4hjsAEXSC/PBdNAaByARWknO/kiLUmU4fqD+RSw2+tQlEqz9tvxr72dmIpN72neeXpCUamxskPCoBj8R8XPKoR+p6Mlb81J+opQe/otafxufMWI1Jyv1+Pvx+yYUGg0BKAosp8g9IXl6Ysk4MEjf1J2WJIe5OAtHrT6evjdwepGGp+ti7lSMHSZ5Eh0GgSgIrKrLPSp7IWHW5Lyo+6k+VJYa4OgnkUn86fW7kdlGNTZnheGLZUdLLpcZP2mhkKa0m0S5b/m2J70ie7Fhmma4ybOqPMhMrnUCO9ad0KNEjqLIhKiKuqwX0M9KM6GDxLxsC68rTA6VrpSLKaOQwqD/ZFMtsHM25/mQDuSxHIzdWE/l2nqB8WPJLejAIDEJgmg7+iHSBNFE5q+v/qT+DlBiO7SRQl/rTmabKtyMMZ7txq4NdrkR4KdSJ0l+kZyUMAm0C82ljc2l36XXSFlKE+ic3Qhj1J0Q2hHWirvUnaRuQNPJWUatLB6Cz5typL6dIf2jJb5/DmkdgNSV515Z206cnJmETE6D+TMyoCUc0of4kvQYnjbxVguvYAeiunFdphzsDZ0geHaBDIAg1NL+G+SXSzpIv/OtI2OgEqD+jM8whhCbWn6TX4KSRt0pkEzoA3ZXPPzrz1w75Z2Rndx/E99AE/OpXD+n7Xfi+6G8nuQHDyidA/SmfcdkxUH/mEE56DU4aeauENbED0F25ntaOqyVPCPNPz/p5qEcK7pWw9ASWkAubShtIG0pbtpT6PfxyAxMB6k/sYkD9GTt/kl6Dk0beYkIHoHfhMJfrpSta8jCoOwZXSv5hHKx4AssqyPWk9bs+19T3CHVFbmB9EqD+9AmqwMOoP4PDTNquJI28xYoOwOCFxpOkPGJwQ4dubG37NazPSNi8BObXLv/g0xotTdenL+7+7uf1TNIThAYY9We4TKb+DMdtvLOSXoOTRt6iQgdgvOIx+P88l8DPSG+XZrU+72httz/dAPondOvSUXDDtJzkC7gv8P7Fr6nSFGnl1ra/e1bxZAmDwFgEqD/Un7HKRhn7k16Dk0beokkHoIxi1V+YD+owdwQ818CfnXpE3y03iP4Fuiekx6WHJO/zp8355/93mv//aOcObS8mLdi1b2l9b5fBJVv/96d/hMmThPx/n7N4Sx5i7JQv+v6+lIRBoGoC1J+qidcvvnb7lyRlSSNvpZgOQJKsJ1IIQAACEEhMIOk12G9XwiAAAQhAAAIQaBgBOgANy3CSCwEIQAACEDABOgCUAwhAAAIQgEADCdABaGCmk2QIQAACEIAAHQDKAAQgAAEIQKCBBOgANDDTSTIEIAABCECADgBlAAIQgAAEINBAAnQAGpjpJBkCEIAABCBAB4AyAAEIQAACEGggAToADcx0kgwBCEAAAhCgA0AZgAAEIAABCDSQAB2ABmY6SYYABCAAAQjQAaAMQAACEIAABBpIgA5AAzOdJEMAAhCAAAToAFAGIAABCEAAAg0kQAeggZlOkiEAAQhAAAJ0ACgDEIAABCAAgQYSoAPQwEwnyRCAAAQgAAE6AJMmvUPF4CzpHxQHCGRCwGXVZdZlN7VRf1LnAPEPSiBS/RnU90KPf1GhoQ0XWOoLb5vBWnJ//5amD5cUzoJAqQRuUOg/bun6VkzUn1KRE3iNCESuP0kwty9+SSJvRRqlAetksKG+7C29WVqn8x9sQ6BiAjcpvuOko6U/S931pfu7DqnUerUh1J9Ks4DIxiGQY/0ZJznF/qtX5S02holDi9iAdXq9hb68QXqNtKkUgZncwGpKwPXhYukk6RjpQmk8o/6MR4f/NY1A3epPqfkX4WIWvQHrzICp+vLqll6hzyU7/8k2BIYk8KDOO1U6uaXbBwiH+jMALA6tJYGm1J/CM48OwPB39PMrNzaTdpC2l9whWFrCIDARgUd1wF8lD+mfLZ0pzZaGsZw6AJ3po/500mB7EALUn0FojXMsHYDhOwDdWBfQjq2k7aQXtz5X0ycGgZuFwBf8ma3P8/X5tFSE5doB6E479aebCN/bBKg/bRIFf9IBKK4D0Ctr/MjAnYGtpc1bWlGfWH0J3KmkXdTSefr0RX+WVJbVpQPQiw/1pxeVeu+j/lSYv3QAyu0A9MrKVbTTnYFNpPWl9SSvNGA+gSBkZA/J16taukKff5N84S/zYq/g57E6dwDmSax2UH96UclvH/VnTp4lvQYnjbxVZpvWgI1VVZfRP7x8agNpzZb8fV3Jz0uxNAQ8Ie8yyevuL+/YvkHbqcuuXEjuQ4Q2xByoP6YQz6g/4+dJ0vqTNPIWl9SNaAQG4xWRRfTPGdLqkucU+A7In53bPgYbnMDjOuUW6bbWZ+e2nzteI/mYyEb9GT93qD/j8xnlv9SfUejNOTfp9Sdp5C12qRswP6OfOXo+Jg1hecXe7hisqu0p0rLSci2t0PF9cW3X2R5R4u5t6Z6Obe+7Q7pV8sXdF33vy9m2lfPnJE4A9SdxBhQcPfWnYKATBJf0Gpw08haY1B0A92LfJf1sgoyqy78XUkLaHYN2J8HLF73f8xAWbW17SNX7/N37F5bcebAmS23z44nu+Qvt89rH+PMx6cnOHdr2c8BnOvZ5KZyX+Dws+Vj/v33e/a19/u79/v8Dki/i97U+vd0dh3bV0t6iVH1Xcr6kNOrPnOW/1J+UpXDwuKPUnwjX4MHpFXjGEwrLnYDUOkE++C4ag0BkAivJuV9JqetLd/zUn8ilBt/aBCLVH1/7Gm93iUB3Y5Lqu+88vyQt0fhcAUA0Ah6J+bjkUY9U9WOieKk/0UoN/rQJRKw/d7ada/KnJ1pN1LBU/X8/H36/5EKDQSAlgcUU+QckLy+suh4MGx/1J2WJIe5OApHrz9WdjjZ1+ywlfNiGpuzz7pZvB0meRIdBoEoCKyqyz0qeyFh2OS8rfOpPlSWGuDoJ5FB/zux0uKnb31bCy2qAigrXE8uOkl4uNX7Shhhg5RBw2fJvS3xH8mTHospv6nCoP8pMrHQCudWfb5VOJIMI3icfUzdQg8TvYZvPSDMyYIuLeRBYV24eKF0rDVIWczyW+pNHmczJy1zrz3tzglyWr9so4BwbMvt8nvRhyS/pwSAwCIFpOvgj0gVSruV/VL+pP4OUGI7tJFCH+rN1Z4JSbEcYzp5PCfekoZVTACgwzssVlpdCnSj9RXpWwiDQJuByvrm0u/Q6aQspQv2TGyGM+hMiG8I6Ubf64xUAUyWuE4LwA2nUu4lI59+h9PxYeqvkN/NhzSTg1zW/TfqJ5AofqYxG9oX6o8KCPfe687eJQx3rz/cj5G+UO5BXC8ZJEYCU5MNVCvcP0hmSRwf8OlqsfgTc2XuJtLO0q7SOhI1OgPozOsMcQmhS/XmVMuT3qTMlSgfAwztXSk2ZWHeL0vrXDvlnZGdLWD4E/OpXD+m/WPJFfzuJ0R5BqMCoPxVALjmKJtefq8V2PcmjcEktSgfAEPzincOS0kgX+dOK2oXCE8Iuk/w81CMF90pYegJLyIVNpQ2kDaUtW1pYn1h6AtSf9HkwngfUn7npvF9fvzn3rjTfInUA/CMzvghOSYMiXKzuHV4vXdGSh0HdMfBIiX8YByuewLIK0j3z9bs+19T3SHVF7mATEKD+TACohH9TfyaGersO8aNB/+picovWqL1dRDwhEBufgCeUubN0Q4dubG17RcUzEjYvgfm1yz/4tEZL0/Xpi7u/u1KuKGH1J0D9GS6PqT/Dces8y9e4Izt3pNx+UcrIe8TtuQDnSh5ixYYjMFun+Rmpe5qzWp93tLbbn24A/RO6dekouGFaTvIF3Bd4/+LXVMmjSV5e6m3Ls/InSxgExiJA/aH+jFU2Rt1/gQLYRgqz9C9aB8CAN5FmSjxfNY1y7UEF747Ava1Pb7flISrLDaJ/ge4J6XHpIcn7/GnzUKv/32n+/6OdO7S9mLRg176l9b1dBpds/d+fi0qeJOT/+xw/HrI8xNgpX/T9fSkJg0DVBKg/VRPPNz63n774XxIpCe3GN5JP9uWD0tejOYU/EIAABCAAgSEIHKBzDhvivFJPidoBsF/HSbuXmnoChwAEIAABCJRL4HgFv6fk0dJQFrUDYEgeBv6T5GETDAIQgAAEIJAbgQvl8E5SiFn/3fAidwDsqydx/VWa5i8YBCAAAQhAIBMCXpH1Yinsm1896z6yeSb7LtINkZ3ENwhAAAIQgEAHgZu1vbMU9uJvX6OPANhH2+rSH6W1/AWDAAQgAAEIBCVwk/x6mXR9UP+edyv6CEDb0XZv6m/tHXxCAAIQgAAEghHwNWoHKfzF39xy6QDYVw+lbC/9xl8wCEAAAhCAQCACv5UvL5VCD/t38vIb1HKyp+Ts0ZI7LjtKuTzCkKsYBCAAAQjUkMCzStPnpPdIT+aUvpwvoLsI9I8lfoI1pxKHr5EI+FmljVU2czjwFwKDEvDd/luk0wc9McLxOT0C6Ob1J+3YVPp19z/4DgEIjEvAdyyHSxu19E19eh8GAQj0T+BXOtTXoNP7P4UjyyDgNwb6buYfCAaUgXHLwDXis7PUbS/Rjssl6hAMKAPjl4FZqid7d1egHL/nNgdgLMZX6x8/kPyDMVtKOY9syH0MAoUT8I8z/Zf0L9K1PUK/RfuOkNz4by3xq4mCgEGgg8DT2vZo2V7SRR372QxEYF35cpRELxYGlIE5P/nsuTJTB6ijPvY7kifdwhAGlIFJk05VXdhYwjIh8DL5ea5E4YVBU8uAf4RkgxHq64Y690TqEG1Ig8uAryG+lmCZEni1/P6L1NSLAOluVt4/o7LuX9L0M/2ibHsF5M6EJwpSnmDQhDLwZ5V1XzuwmhB4udLxe4lGjAasjg2Y1x/7Gf76Ulnm0YQfSo6rjgxJU7Pz1deG30m7SlhNCbgR8/NNT4qiwsMg9zJwl8rxf0uDPOPX4SOZ373xZeluKXd++E8e+lrwv1KZnWcFj0UisKycOUC6RKIRgEFOZcB3KqdJb5QWklKZ436T9AeJkTXqUE51yL667fc1wNeCRlrObwIsMsO2VWDvkPaWli4yYMKCQIEEbldYP5K+L11XYLhFBLW2AnmntL80pYgACQMCJRB4QGH6dfJ+XDazhPCzCpIOwNzZ5Tua3SR3BPaSFpMwCKQkcK8iP0lyo3Wy5LXIkc3v4PAERNehfaSVJQwCKQk8ocg9YuY65Lf3PSZhIkAHYOxisKT+9WrpddKrpOUlDAJVELhbkRwjHSWdIT0j5Wh+0dgukjsCr5eoQ4KAVULgHsXyO8nLWN1xfkjCugjQAegCMsZX39VsLvmVw+4QbCHBThCwwghcrpBOkHyncroU/U5fLg5k7Trk1TiuRx4loA4NhJCDJyBwvf7vC77r0RmSX2SFjUOACjgOnHH+tbr+91rJnYGXSotLGAQGIeA7lNMl352cJN0hNck8T+A1kkfZdpaWkzAIDELgER3sC/1vW7p5kJM5lh54EWXAw5zrSX5Zyg7SztJqEgaBTgIe1veko7Ml3+X7XeLPStgcAmvqw6MDrkMvk1aRMAh0EvCS13Ml1yG/qMfbsyVsSAKMAAwJboLT3CFwQ7Zj69ONG9YcAr6wXyn5gt++6HuI30uPsIkJuF3aUHL92aYl16n5JKw5BK5XUn2xP6v16TqFFUiADkCBMMcJysOdm3VpbX2nQRsHWkb/ukW+Xij5juQc6XyJSUeCUKB5Uu7WkpfsulPgeTiMtAlCDcwd5muli7vkZa9YiQToAJQId4KgPW9gE2lTyZ0DTzL0Xc+iEhaTgJ85Xib9vSW/SMTb90tY9QSWUZSuQ5Z/qc11yXVoMQmLSeAxuXWp1L7Y/03brkOuW1jFBOgAVAx8guicH76rmdGldfR9DWlBCSuXgIfpb5aubukqfVr+7v08txeEwOZRtWmS68y6LXnbdWp1iTZPEEo2P5e/QXKduaZLHi3jUZggRDAqQ4Rc6M8HTzacLvnRQbsxm6ptN2r+9KSphSVsYgJ36pAbpZs65O/W9dLjElY/AosoSWtKa0juJExvfXrbWknCJibgF+vcJs2S3Cluf/pi76H8G6VnJCw4gRcF9w/3BiOwgg53Z8CjCO4QeNvyEqtuTda+OtmjSozfmmf5Am+5Ybqj9Xl7x6cbMAwC3QTcgXZ98Zwdy9srS65L7hysKLXrUd0eMzyltLXrT+en65DlC77v3r19t4TVgAAdgBpk4pBJ8KQqN2bLtz697UZtKcl3Sp6L4G03it7v472/ve0RibYtoY0F2l9a297XbQ9qR+cQuocCH2gd5E9/f0jy3YOfCfqi/rDk8yzv83er3Ujd19rmoi4QWGUEXC9cZ6xlW58u8225vrj++LvrjOf8uM54v9vdpSWbPzvbYT/C8Hnd5jL/dMdOb3tf21xnXHdcZzyC1d52vXDd8bN37/d2Z2fZ76OwOsPSVwwCEIAABCAAAQhAAAIQgAAEIAABCEAAAhCAAAQgAAEIQAACEIAABCAAAQhAAAIQgAAEIAABCEAAAhCAAAQgAAEIQAACEIAABCAAAQhAAAIQgAAEIAABCEAAAhCAAAQgAAEIQAACEIAABCAAAQhAAAIQgAAEIAABCEAAAhCAAAQgAAEIQAACEIAABCAAAQhAAAIQgAAEIAABCEAAAhCAAAQgAAEIQAACEIAABCAAAQhAAAIQgAAEIAABCEAAAhCAAAQgAAEIQAACEIAABCAAAQhAAAIQgAAEIAABCEAAAhCAAAQgAAEIQAACEIAABCAAAQhAAAIQgAAEIAABCEAAAhCAAAQgAAEIQAACEIAABCAAAQhAAAIQgAAEIAABCEAAAhCAAAQgAAEIQAACEIAABCAAAQhAAAIQgAAEIAABCEAAAhCAAAQgAAEIQAACEIAABCAAAQhAAAIQgAAEIAABCMwh8P8DU9RYsU9Ti0wAAAAASUVORK5CYII=;textShadow=1;fontFamily=Verdana;fontSize=16;fontStyle=1;labelPosition=center;align=center;shadow=1;" vertex="1" parent="1">
          <mxGeometry x="1343" y="-856.5" width="232" height="232" as="geometry" />
        </mxCell>
        <mxCell id="C_XI61WrGr2y75dWy_v_-51" value="" style="shape=image;verticalLabelPosition=bottom;labelBackgroundColor=default;verticalAlign=top;aspect=fixed;imageAspect=0;image=data:image/png,iVBORw0KGgoAAAANSUhEUgAAAgAAAAIACAYAAAD0eNT6AAAAAXNSR0IArs4c6QAAAERlWElmTU0AKgAAAAgAAYdpAAQAAAABAAAAGgAAAAAAA6ABAAMAAAABAAEAAKACAAQAAAABAAACAKADAAQAAAABAAACAAAAAAAL+LWFAABAAElEQVR4Aey9CZxcxXX/W7e3menZV+37hiRASKNBCAwIAVrAxltkx4AETt7j848TZ30viRPnPf75xM7qbHacPBLbIDBe5CVmk9gVMAhtgMDatxlppJFm36ent/vOaanFSJre6lbdvt39q49G3X2XWr7VfevUqVPnGAIJBHKEQOMnHvF7jIHy0Ki73OVylRuGUR4RZoUratB7UR4V0dgxERXlhhAVJh2jpsWOmaZJ780KIYzYMTruoWsGTPqj9/zXf+HVHDAN14BhmrHjdL7fZdJ1LjpOx1ymO/Ya9ZgDRYbRH41EBnaumDcoHn00SvcjgQAIgEDOEKBnIBIIOIfALff9RnkoHFpgmq4FNGAviJpigXCJBYYp5lEt/c6p6WU1ocHfbCbh4jD/mUb0sDCMw9Gg5/B7L3/37GVX4gMIgAAIOIQABACHdEQhVWPDhg3uE4P+mYYZpUGeBnqXuUCY9CcM+hOT8ozFIP3ISDDgPzMmIAjDdXg0HDn6wUtPDuVZW9EcEACBHCIAASCHOivXqhqbzQfD15o0kxcu48JsngZ5Q5hzqS2+XGuP4vrS6oJoFQYJBlHWGlwQDjwifGDn1u+3Ki4L2YEACIDAVQQgAFyFBAdkCazcsKEkPOC/mQaz1fTFWk0j3HLKyyObX8HeZ4iTpA15jQSn10Qk+vreF59qK1gWaDgIgIA2AhAAtKHN/4wbGx/xivrAChcN+KYwVlOLb6K/ovxvue0tPChM4zVDRF/zmL7tO178TrftNUCBIAACeUcAAkDedam+BvHafctQ8VIyzKMZvsEz/I9RaaX6SkTO4xAg7GKfMMVrJgkFxUXuN9565ru8YwEJBEAABDIiAAEgI1wFd7HReM/D17pEdLVJgz61/jb6qyo4Cs5ucJh+xHtIKnjNiIrXPRUjb+3YsmXE2VVG7UAABJxAAAKAE3rBQXVovOuRSsMb+CwN+Gtpb/0dVLV6B1UPVUlNYJQueYcEgldpl8WP92x7incgIIEACIDAVQQgAFyFpPAOrFq1ytPvn76OZpAbadC/jwgUFx6FPG2xIXbRcsGTpif0w73P/qAzT1uJZoEACEgQgAAgAS1fbll270ONbjO6idaSv0Btwkw/Xzp2/HaE6PBWclC0udeseO7Y1m+ypgAJBECggAlAACiwzm9a88VpUVfkAZrpb6KmLyyw5qO5Fwj0klOiH5MTps17tj7xFqCAAAgUJgEIAAXQ7+yQJxgMfZa26m0ixzOrqMno9wLo9/SaaJ4grcCT0Uj0qXdffOpYevfgKhAAgXwggIEgH3pxnDbwlr3modK7hRndSAZhn6JLnOpHf5za41BWCJjibQp69GTQiPzow+ef7slKHVAoCICAbQQgANiG2p6Cblz74JKo4eKZ/v1U4kR7SkUpeUYgSN+f50wz+qRo9z+/d+9jbD+ABAIgkGcEIADkSYc2rXvoTnId++f04L4jT5qEZjiDQCtpkP7OVzbyX/Av4IwOQS1AQBUBCACqSGYpn8a1D93rcplfpYc0u+FFAgFNBIzzQkT/cWQk8O3927cMaioE2YIACNhIAAKAjbCVFfXoo67lO098hvL7c/q7QVm+yAgEUhPoJr8C/zrqDv8r7ARSw8IVIOBkAhAAnNw7V9SNDftODhXfT4FhvkKnsIXvCj74aCuBAdpK+m+jYfOfPnjpyXZbS0ZhIAACSghAAFCCUW8mizds8PkHix8iNf+f0g6+2XpLQ+4gkBGBYfpe/qfPLf5+x3Obz2R0Jy4GARDIKgEIAFnFn7zwlRs2lAQH/P+nYZj/N105NfnVODuWgEHTUxf/uVz0F3+9+N5w0dZ3WtGmsIbRaPTCqxkVEXpv0rHYKwVDQMqIAO8c+J4rbP7trpeePJnRnbgYBEAgKwQgAGQFe/JC2XFPIBT+kkuIP6RhqCH51fl/lgdzn9crfD6PKKJXt9t92cDujg/yNLDHB3u+x0oySQCI8l9cQIi9krAw5hgLCqFQSIwGQyJIr5FI1EqR+XJvmLwMPm1G3H+996XHD+VLo9AOEMhHAtaekvlIJIttuu7e+6uLIp7fpbHr92jgr85iVbJStNfjoYGe/nw02McGfG9swPfSsVxILACwIBAXCMj7YuxzMBQWLFAUWIqSEPZTIxL52q4Xn9pXYG1Hc0EgJwhAAHBCN5FVf+Ou44+4TOPr+T7ws0o+PsjzbP7SYE/vefaer4kFg2AwfJWAEI5E8rXJ8Xax5PM9ikb4J4hGGEeCVxBwBoH8feI6g2/KWtx4z8bltOz8bTLua0p5cQ5e4Ha7hL+kWJSWlNBfcWzAz8FmaKtyhASAoZGAGKY/fmWtQZ6mbkOYf7p765P/Re0rOHVInvYpmpXjBCAAZKkDY+r+qPfr9Cx8hKpAy/35kXiG7y8pig34PPAXF/nyo2E2tSIcZoFg5IJAMBwQoTAtqedX2knN+a09Wze/l1/NQmtAIPcIQACwv8+MpnUbHzIN4++o6Hr7i1dbIhvb+YuLhN9/YYbPA75VAzy1Nczt3EJkP8ACQUxLQAJBniwZ8LrHv5uh4q/ufeWxvtzuIdQeBHKXAAQAG/tu2bpN19MyN6n7xS02Fqu0KB7ceZAvvTjgl9DgjwFfKeKkmbGB4YXlggtagtzeeWCcN0zz/9q9bfNTSRuNkyAAAloIQADQgvXyTFesf6AiIjz/m9T9X6Yz7svPOv8TD/BlpSWisrwsptrPZ2M95/fG5TUMjI6KvoEh0U9/Oawd+B+3iHxp59bvH7i8dfgEAiCgkwAEAJ10Ke/l6x76gjDMb9DbSZqLUp49z+550K8oK6W993ljpqCck1MyHBweEX39g2JgaDgXtx2S9aPxT8FI9C/JtfCQU5iiHiCQzwQgAGjq3WX3blzoihj/lmvheXnPPQ/6leWlsb34mvAgW40E2HlR/+AwaQYGY8sFGovSkfVpWhb4/d3bnvyZjsyRJwiAwEcEIAB8xELJu+vXbCwtcht/Qfuc/pAy9CrJVHMmbLlfUeaPDfxsuY+UPwTYiJAFAV4mYF8EOZNMc5tpuH5n79YnjudMnVFREMgxAhAAFHbYsnUb15L/+f+kLKcpzFZbVmVkyFdZUSbKS/0w5NNG2TkZjwTYXmAwZi/AboxzIAXIbuav9qyY89fi0UdzosI5wBRVBIFLBCAAXEIh/yYWpnew5C8pBw7T62imbMEfW9cnFb+HfOojFR4BdkvMdgKsFRgiuwHHuyk2xeuGy3X/7hceP1d4vYUWg4A+Ao4erPQ1W13OKz++aUo4avyAHqK3qstVfU68ba+uujLmlU997vbn6I25EfYJr89H3gU/+vNSHIEiX9G4x8dex8sewWDwsr9Q7DO77L1w/MLnj64Z+3mUrO/zIbGjoa6ePtFLxoNOFgToQdVuGtEH97zw1Mv5wB1tAAEnEIAAYKEXLqr8n6QsHOvQp4zU+zzws0V/riUepCurqkRNTbWorqm9+FpD72tECbkWzmYK08DZ29Mjuru7RU93D/11X3zfHRMgslk3mbJ5C2F3b7/o6RuIRUCUycOGeyjAkPn1maWBR7ds2cLOhJBAAAQsEIAAIAEvF1T+vHWvrqaSZsPOd8Vb4vdfGNyrLwzuPMDX1NaIysrKWNhfiS7K6i1DQ0Oiu6vrKsGgv7/f0bNshsaOhbr7SBAgYcDBdgJvRMKeL7z38nfPZrWjUTgI5DgBCAAZdqCTVf7ssIe379XSjJ/D6Tox+WmwnzZ9upg6fZqor6+PzeaLiwtj58EFrUEvaQq6xJnWVnG65ZToIkHBiYm3ErI2gLUCDnUw1GEYrk1kF7DNifxQJxDIBQIQADLoJaeq/HngryJrfh74vR5PBi3Sf2lRUVFssJ9Ogz4P/LV1dfoLzaEShskY7/TpUzFh4PSpU6K3t9dRtWe7gN7+AbIT6HdiYCIKqSH+tnT41F9s374976ImOeqLgMrkJQEIAGl0q1NV/rxGXl1RLmqqKxxj0c9GeFOmTI0N9tNmTBcNDQ3YYpjGdyx+yQAtE5w+dZr+TolT9Dc4MBA/ldVXFgR41wAbDDrQn8Bb5Er418mVcGtWIaFwEMgxAhAAUnSYE1X+bh74qypETWVF1l30umkr4eQpUy4M+KTWnzhpUk6u26f4GmTtdG9Pb0wYYIGA/4aHh7NWl3jB/YNDorO7T4zSbgkHpS4zajy098UnnndQnVAVEHA0AQgASbrHiSr/ahr0G2qrsjrIemiZYc7cuWLh4kWxgZ8/I9lDoLOjQxw6eFAcPHAw69oBdirU3tnjJBsB0lOIb4j24j/bu/exHHJ7aM93B6WAwJUEIABcSYQ+O1Hlz9v4JtbXxkLxjlNlWw5NmTpVLLp2sZi/YEFs770thaKQcQmwSp6XCg7u3y+OHjkiQlly88s7BTq6aBskGQw6JdFD7Z2wEf719154usUpdUI9QMCJBCAAXNErK9f+Zk3IFfo5Hb7tilNZ+chR+Bpqq8nIrzwr5VdXV9NMf7FYuGihqKBteUjOI8CD/7EjR8UBEgZ4mSAbDn0Co0Fxrr1LjDjEQRI92HrIcdDn4TjIed9X1Mg5BCAAjOmLpjVfnGa6Iy/SoYVjDmftLVv2N9B+eLtD8fK2vAULrxGLaODnNX2k3CEwODhIWoEDMc1ANrYYsiaANQIO8SEQImlo055tT/4wd3oQNQUB+whAALjIesX6BxZFhJsH/6n24R+/JPbXz+p+O733sTHfrNmzY+v6/MqfkXKbwPnz52OCwKGDh8SIjcaDEfIqeJ5sA9hGwAGJFCLG7+/d9sS/OqAuqAIIOIoABADqjhvXbVoZNcRz9LYmm73D2/rqa8j1LVn425VYrd+4fLm4hlT8heKQxy62TimHnfo0nzwp3tu7V5wi50N2peGRgDjX0e2U3QJf37N185/b1XaUAwK5QKDgBYDGtQ/da7jMH1Nn+bPZYRXkwW9CXY1t+/lryN1u000rxDULF2Z1R0E2mRdi2W1n28Sud94RJ44ft6X5bI8QWxbo7s16jAHDFP81s3zkfyGOgC1dj0JygEBBCwBN6zY+TK7E/pP6KWv72IrIcQ6r+/0l9rjDrSfHPDfSwD9v/nw46MmBH6iuKvJ2wl3v7BRHDh+2xWgwHOZlgW7BPgSymkzxi7KA69e3b388kNV6oHAQcACBghUAlq/f+MdCGH+brT5g971xdT+/150mTZ5EA/9NYvacObqLQv45RKCHIhruJkHg4IEDtszQh4ZHRBvtFuAwxNlK9Ht7Mxos+sTeVx7ry1YdUC4IOIGA/pHHCa28vA7G8ns2fkOYxh9cfti+T+yvf8rEeluM/Nj//oqVN8Uc9tjXQpSUawQ4UuGeXbvE/g9/JThokc7EEQfPtneKQYqDkMX0gRmNrtv74lNtWawDigaBrBIoKAGgsfERr2gY+Z4hjAeyRb281C8mTagT7M5XZ2JLfh74J02erLMY5J1nBDiU8d7de8QH+94XoaBeZ3ocabCdtgxmw28Bdxt5DWz2uF1rdj73+NE860Y0BwTSIlAwAsD1azaWFrmNn9KPfm1aZBRfxGp+duij08Kfy5g7f55YQap+XutHAgFZAoFAILZr4P133xP8XlcaCYyKM+c6srkk0BF1Gevfff6JvbraiHxBwKkECkIAaPzEF+qMiPd5EvlvzEZHeL0XVf4UGldXYoc9q+++S0yYMEFXEY7P10UCkM9Df+Q9kc0qwlGT/NTTH71G6A8pcwI8+L/95i9JI7BP20ydnQa1ne8UA9lbEhg0ouLTu1/c/ErmhHAHCOQugbwXAJbec/8Mt+lhBz8LstFNulX+vHf/lttuFdddf33eW/V73RcGdx7kvTTIxwd7n4fe0zm3K/HXeSgYET1DIdEzHI4JBNn4LuRymefPnROvvvyK4FddKctLAkH69mzavXXzj3S1D/mCgNMIJH5iOq2mEvVpWvvQYtNlvkS32r4QbofKf/F114lbb79NlJSUSNBx5i0eGsjLfG5RQn88qMcHdx7weVZvNbEeoGMgKNr6RgWUApnR5LX6D97fJ956800xqsnnP8cSiC0JhPQaIiZoeZR8BXx597bN305wHodBIK8IKHikOpPHxZn/21Q72wd/VvlPJSv/Yk0q//qGerH6rrvF5Cm2N015ZxfR7J2MM0TZxT/+bEcKhKKipTsghkkzgJQZgWFyK/zm9v+JBR/K7M70rmbPhbxLYGAwK7sESEY0Ht6z9YnN6dUWV4FA7hLISwEgtuYf9r5F3TLf7q4pL/OLyQ11Wrzr+Xw+cfPHPiZuWLY0Z9X9JT4XzfA9sQGfB35W62crcfD4E50joj+QldlmtpqtrNwzra2xZYGuzk5leY7NqKevPxZTIAu7BMJk8PBJCiL0wtj64D0I5BuB7D19NZFka3/SHr9OUnyTpiLGzZZV/hPqqkV1pR4//hyd7/Y77hClpaXjlu/Eg7wk76fOiM/wuWOSrdNnow1RkgKOto9AEyAJn2frHGNgx9tva9k2yGGGz5xrF0H7lwSGo8J157tbH39HEg1uAwHHE8grAYD3+bsaAs/SxM7WrX4eipw3dXKDKNGg8mef/Wzdzw59ciGxJX6V3yNq/N7YLF/Fur3udodop8CR88MiSA5qkOQIDA4MiO2vvS6OHjkil0GSu1jIaKWtguxF0ObUHXWZH3v3+ScP2lwuigMBWwjkkwBgNK3f9BQN/vfbQu5iIbzeP33yBOHzepUW6yFvgTfdvFI0NjVpWU5QWVn+EpUX06Bf6hGVJR7BQkCupZ7hkGju0rffPdd4yNa35WSzePWVl0Vfr1ovu7wMwHYB/QO2xxI47RaRm3du/X6rLBPcBwJOJZB7T+oEJMm97z/a7d63uMgnptHgzxoAlYln/ffed5+oq69Tma3yvEq8Lhr0vaKaZvvZXMtX0TASHMXBtiExGoYWwCrPYDAoXnnpJXH44CGrWV11PwcU4u2CdiZTGAeCrtDHPnz+6R47y0VZIKCbgNqRS3dtE+TfuH7Tn5B7379IcFrLYY7exzN/t+LBf+HiReKTn/m0KC8v11Jvq5nyQF9XRoJPTbGYVFkUW9932rq+TBtZEnZT2/pGYBAow2/sPfyb4GiTZeVl4lRLi9IgQ2X+kpiGaWjEPm0NfTfqPVHXrTOWzv9B64ED+IKM7Wy8z2kCOS8AcEhfMon/lp29wJb+0yY1KFXNe2gJ4a41a8jK/xblQoVVNhfW9b1ialWRmFpdLCpI3Z/rM/7xmBR53KK9PzjeKRyTIMBeKefMnStaT50SIyPq1u9Z+OaAWrYGEzLENDPoXTJ/avWW5uZmqIkkvg+4xXkEcloAWHbPpo/TzP/7hNWezeNUUHVluZg8oV7pNrza2lrx2Q2/JmbMmkklOCex1f5kmuXPqC2Oqfl5j37erBmNg5lNF3pIA8Cug5HUEPBT8KvF110rBshIsLOjQ02mlAsvv/Gfze6D5we9ldPOHtv3C2UNQUYgkEUCOSsANN374M2GaTxL7PQ52L+iY+pqqmirX80VR619XHztteK+T3+K1KXOUfnz1r3ppOKfTDN+9sjHWxwLJQ2NRgQ7CUJSR4CXBObOmycqaItsi8IlgSKfV7A2gIUAG30FLJ0yb0kJCQGvqCOEnEAgOwRyUgBYsf6BRVHT/TIh07Ppfpy+mFhfK2qrK8c5I3fISyr/u9euFTfdcrNwKbYjkKvRhT37PPBPoYHfLo98snXVdd9o2BQDJAQgqSfQQBEqWRBoPd0qRsiboIrEu3DKS0tiQkDUPs3NxybPu77v7LEP4CNARScij6wRyDkBoGnNF6dFXWI7EbMl7B3PfqeQW9+qijJlnVRbVyc++7kNYvrMGcrytJIRz/in0dp+IQ/8cX6sAYAAEKeh/tXvpyWBaxeLIZq1d7S3KymAd+FUkIOsQfITwJEF7UnG2knzlxxtO7rvQ3vKQykgoJ5ATgkAK9f+Zk3EHX6dMMxRj+LqHF0uV2ybH0f0U5U4gA+r/EvL1AkUsnVjt7zTLw78xbSlD0nE3AKzEICkjwBrvNg4sKq6ipYEmkVUgQMmNwWLqigvFcO0OyAcsaX/eGHsvknzbtjZdmzfcX20kDMI6COQM4u7GzZscJ8cLHmNUNymD8dHOfOsgvf4s6GRinTByv9usXDRIhXZWcqD9+/zFj522oN0OYHTPQHRORi6/CA+aSPQ090tnnvmGTIQVBNPIOY1sK1d2LhNcJC8Bd4Ib4HaviLIWCOBnNEAlExv/Bqp4x/UyOJS1jz4z5g6URRR8B0Vqbi4WHxmwwYxa/ZsFdlJ58EDP+/f5618mPGPj/EshQnGLoDx2eg4yqGsWShuO3tW9Pdbd/DDS3asCeAYAjbFD/CRMfLtkxaueKLtyF5Ijjq+JMhTG4GcEACWrdu4lvai/wdR0K6xYLX/9CnqBn926LPh1z8vGiY0aOvEVBnzYI+BPxUlERv4z/aOpr4QVyglwLsErlm4UHR1dYnurm7LebMQUE42AbHlgLAtywENRjQ8GdsDLXcdMrCZgOMFgJUf3zTFNI0XiYv2MHj84GC1v79Yzc7CGtrf/zka/Curqmzu1o+KqyevfbPrSgTP/pGSE+gaCpENgC0DRvKKFOBZFrznL1gghgaHRPv585YJxIWAQdptEFFgY5BGhZZOnnfDSRIC9qVxLS4BAUcQcLQAwOv+3UEf7/VfaActtvZXZfA3afIk8Wuf/5zwZyl8L1sozaKBv6HcR/v47aCX22Ww6x8OBhSxbytZbgPTUHsetGfPnSNMsuQ/02o99o6L4lGXkQHvwOCwUnfESZq+ZuKC63/edvQDNQYNSQrCKRBQQcDRAgCv+1MjH1DR0FR58D5/VVv9eK3/U5/5jPBpCA+cqh3x8zMveu+Lf8ZrcgLdNPvnP6TsE5g2Y7ooIQc/zSdPWq6MmzQLpRQ/oJ80CzY4C4I9gOUeQwZ2EnCsAGDnuj97+FPl5IeD+dzziY8LN/kqz1ZiC39W/SOlR4AjAJ7oDAjWAiA5g8DESZMER8U8fuyY5YGbjXrZYyCHErahj2EP4IyvEGqRBgFHCgB2rvuzb39V7n0bm5aLO+++O6uuc3mtf0ZtiX5ryTS+XLlwCav8j3eMiFDEhqEhF4A4qI4cDpuX0o4dPWpZhc/Bg4rJtoeXA2xIsAewATKKsE7AcQKAnev+HNWPA/uoSLfefrtYecstKrKylAev+xeqG99MwYVp0D/eOSJG4Ps/U3S2XV9FBrTTZ8wgIeCYCIetReL1kfttdh1sUwAh2APY9i1BQbIEHCcA2LXuzypBDunLhkdWElsvr1m3TixZeoOVbJTcyy59OXofUmoCQ8EIqf1HEPgnNaqsX8GBsthz4Injx0Vw1No2TXbsxXYBQ+Q2WHOCPYBmwMjeOgFHCQB2rfvzQ2A6bffjwdtK8pBa8ROf+mRs+5KVfFTdO6HCJziEL1JiAjzrP0POfk73jMLiPzEmx51hh0HzF8wXLSebxciItcG7hJYC2CBwJGBNmEgDEuwB0oCES7JHwDGjhV3r/qwCnEGOftj5iJXEwgMP/tn27je2DdNqSmh2Y02jMTa/fHjPK/tBMvIboP39bbGBPyCGg3YFjMkHgs5pA++qmTt/fswmYNTi4M07A3hJgT0Gak6wB9AMGNnLE3DEaMHr/s1D/tdJKr9Vvimp74y7+OW1QKtp7T3rxaLFi61mo+x+Hvivn5L9AEPKGpRmRjzAh2iAD9LMPkQOX4IUzjc45pUt/Gmyh5RHBHp7esWPnn5aDCsIKdxKcQNssAkYongBTYgXkEdfwjxpiiMEgMZ1G79Oa/Ff0cmU1/rZv3+Jgr35t626XTQ2NemsbsZ5s+p//gR1UQszroDGG9g3zzCt2QfIWG/s4M4DP1vvY3zXCN+hWbO3wC0//JEIBq3N4HkpoLm1zQ5NwK9MT/GKvc8+Zss2BId2G6rlMALW9OAKGmPXuv+E+ppYzHCrVeaBf+UtN1vNRvn9bPlfW2pds6G8YhIZ8tY8Vtmza95zfUHR2huIve8PhAWH6mVBgAd++odUoAQ4nDZvETx86JAlPwE8MeDlgL6BQUv5pNENbA8wiVwFP5PGtbgEBGwhkFUB4Po1G0s9rpif/0qdreXtfir2+rPK/86779JZVem8vRQPvbYsNwUAXqPvo8Gdw/ByNL4zFJCnZ5gGe5r1Y3++9Fci72+srKwU1eQs6NiRo5ba6qbfjo+3B+r3EbB00rwbdrQd23fcUoVxMwgoIpBVAWDa/KV/Re24R1Fbxs2Gjf44wA9FExz3fLoH2diPPfxZ3TaYbnmZXsc2ALni/Y9n+DzAtw+EYrP7c/1B0TcSjhnnIRRvpj1f2NfX1tWR22C/OHnihCUQHPo7EiHtkn6jwJtK5932WPexXYg6ZanHcLMKAlkTAFasf2CRKYwnqBHa6sCDNQ/+Vo3+Jk2eTL79P51V976pOpsH1QbaBuhUAYUN8ViFz5b4p3oCsQGfVfm8vo8EAlYITJw0kW43RetpawGEeClgkPwDhEkQ0JVoGlJbJEaDpAV4Q1cZyBcE0iWgbfBNVYFJ85ZuoWtmp7rOynlW+1eUWYsiXEshfT9LUf2yGdgnXQblRR7HeQFkNf55muGf6r6wjh8gdT8SCKgmMG36dDE8NCTOWwglfMEeoJjsAfQGDiIh4Kaps69/+szxD3pVc0B+IJAJAWuecDIpacy1Tes2PUgfbx9zSPlbDutbU1VhKd9y8kD2mQ2/Rj7Eiy3lY9fNfSPOiGbHa/qs1j/QNiSOnB+Ore1DtW/Xt6Bwy1lN9jnzyE+AlcTawkkUGVRzKol6jG9qLgPZg0BKArZrABrveqRSuCPPUs20bVrnwB/Tplhb9+dBf8Ovf15Uki/yXEmBkCnqyBDQqr2DTHvj6/pswMd/g2Stz8eQQMAuAjyDnzNvrjjTekb09/dLF1tEnkLDYe32APMnz1/y/tmj+w5LVxQ3goBFArZrAAxvgAz/zAkW653wdn4ITJlYH/P3nfCiFCc8NAv41Gc/K2pI/Z9LKUoL7R0D1vZFZ9peHuR5tr+fZvus5ueBHwkEskWAPXx+kux16hsaLFVhIm0bZsNArckU/9L4iUfy03mHVnDIXBUBWzUAy9dvWkoVf4z+tAkeDXXVltf916xf5ygXv5l0Nq+5VxR7BG8L1JlY2DhPVvzNXYGYcR8b+SGBgBMIsBAwa/YscWD/fukIgjF7AAoYdsE/gLZWVYlIyNV27INXtZWAjEEgCQG9o8TlBfM+vH+nP21CR1lpiaitsuZSYPF114mFixZdXvMc+sQDMQ/KPEDrSLGBn2b8vzo7FLPoh5pfB2XkaZVAeUWFYHfdVpLP5xUTNdsDkKDxR41rHr7GSj1xLwjIErBNAGhav/H/oEqukK1oqvt43X9yQ32qy5Ke5z3Fq+9cnfSaXDjJ/u+PdYwoXYOPD/z7aeBnZz0Y+HPhm1DYdZw9Z45oXL7cEoTK8jJRVaHNXInr5nO5o/9mqZK4GQQkCWibjY+tT+MnvlAnou5f0LGSscdVvWd1XWy/P0nssonX/T/7uQ2ijFyM5kNiD3rsXY+XA8jbonSTeOBvJw99zZ20d5/yg12fNErcmAUC02ZMFy3NzWJwcFC69Jh/gKFhchSkbQvrrMlzbzhCboJ/JV1J3AgCEgRs0QAYEd/fUN1qJOqX1i111ZWCY3xbSavvvFPwnv98Suxo59C5oZiRXqYrArGBnwwKYzN+surHNr58+mYUTls4bPe9933C0lZe3lXDhsU80dCWDPMb5BzN2r5lbZVDxvlKQLsG4MZ1m1bSavS3CKCWXw/v27X641y4eJG4+WO35GUfsyUAW+ZzYB1W2/soaFAyjQAvH7TTwM92BOyeFzP+vPxaFFSjiigCaE1tTSxwkGzDOZQ4C8UjgVHZLFLdVx4VLj95CNyW6kKcBwFVBLQKABs2bHB3h73P0MjPvjq1JB782VhHNtVQMBHeNsSWw/mceCBnQaCD1Pnd5Id/gN6PBKNkwR+JDfQsILT2jJJlfzAWcS9TjUE+s0Pbcp8A/86Do6Oira1NujEl5Bukn7wERqN6lgLoOdk0dc51vyAPgeelK4kbQSADAlqXAJqHSn7HMMWSDOqT0aXs5pfX52SThwwH773vPuElLYLdidUhOjWKydrDnvr6aXbPM332G8BR+Hi2DzV/Mmo4l+sEbl11u5g4aZJ0M1xkS8NhxTUmd9Tl4p1SWrSlGuuNrHOUgLZp79L1X6w3hPlz4mJtcT4BWF7bmzaJvP3Rq2xi16G8X1h3YpV7bZlPTCj3iSlVRWJqdbGYWFkkJlYUkec+nygrcsdU8zwwQ+WuuzeQf6ES4DX8GTNmiAO/2h+L/CfDoYi0jQFaBgiGwjK3p3PPtElzl5ykpYB96VyMa0DACgH50TNFqR4j8od0iTajlvqaKuHxyMsvC665Rlx3/fUpWmHtdBGtt8+sLRbXTi4TU2ngr/J7YgP92Fy9bkNUltAWRhIIFtN1s+pKHBfQZ2x98R4EcplARWWlYEdfVhL7BtBpEEhyyld5+dRKHXEvCKRDQMuX7IZPPVzlCptPUwW0zP7ZReekBvkfYVV1Nbn6/YzWdX/2yT+bBnO/z522qp/1fsVeV0xbwGvw7NUPCQRAQC0BdvE9GgiIc5L2AO6LXjaHRwJqK/ZRbjU9Ie/htqP7PvzoEN6BgHoCWjQA7tHol6mq2mb/VgZ/NvbjbUE+jX6+p9cUi2mk5pcNysPb9nmpgLUHSCAAAuoJsD3AhInytsm1tPWYdyDpSmQ79WeUN2wBdAFGvjECygWAxas2lNG39vd08WWvXFb2/K9YeZNosBgoJFnbeOCvLVXzYKj2e2NLB8nKwzkQAIHMCfBEgF0Fy9oQ8RIABwzSmBY3rn/wkxrzR9YgoD4oj7/E/7+IqxaPOqx6a6itlu42Vv0vv/FG6ftT3TixwhcLx5vqukzO15Ph4ATKFwkEQEAtAXb8tcyCq2DegcQ7kXQlQ7j+XFfeyBcEmIBSDcCqVQ8Xm8L8I11oefC3sl9/9V13Wro/WbvKi90xy/5k18ieYwPBErINQAIBEFBL4KabV4ry8nLpTCfU1UhrEdIodPmydRvXpnEdLgEBKQJKR5Wh4uhvUC3kF9aSNIHV/lUV8j/U+QsWiBkzZyYpQf4UW/LPrCnRumDXAC2AfAfhThBIQIB9gKxavTrB2dSHeScS70jSldwuaAF0sUW+CjUAjY2PeE1D/LEuqFbCcnpp7+7tq+/QUjW20plZWyI8JAToTGwPwG58kUAABNQSmDt/npg5a5Z0ptWV5YJ3JulIpmneumztg7fqyBt5goCyEcVVP/IA4ZyhA2l1ZYUoLpL/ga285RZtUf4mk7U+O/LRnVi8aChXY1you67IHwRyjcAdtDzInkFlUswgsEGfQSC0ADK9gnvSIaBGAHj0UZdpGF9Jp8BMr6EvPxn+yavY6urrxNJlyzItNq3r2YFPAxnp2ZU4tC8SCICAegJVVVWiacUK6Yz9FCegolyPQSC5BFl74z0bl0tXDjeCQAICSgSApp0nNlD+8xOUYelwdVWFJSOb1Xfdben+RJVndfwM2u9vZ/JedEBiZ5koCwQKhUDTihtFVbWFyYaFe1MxjpqwBUjFCOczJ6BCACCfFTGnFZmXnuIO3qNbQ+p/2bT42mvFlKlTZG9Peh8P/m722GNj4uKShfK1sSooCgTyjgDvMFp9513S7eI4AeVlfun7k99ofrJp7UOLk1+DsyCQGQHLAkDT+o0fpyK1ONVn45q4283MmkUudUkld+vtt2V6W1rX118M4JPWxYovgiGgYqDIDgTGEJgxa6aYt0BemVmnTwtAbgFM9g6IBALKCFgWAExhaHFWwYY1NaT+l0233HqrKPGrl8Y5wM/kKvvW/a9sv706hytLx2cQyH8Cq+64Q/DOIZnExsplFkKUJyuTNK2fpx0Bc5Ndg3MgkAkBSwJA07qH7qTC5C1nktS0mvb8e0glJ5PYx/d1S7QoJQT7+Zf18S/TlivvGQlFrzyEzyAAAgoJlJFjoJU33yydY50+vwBut+H6E+mK4UYQuIKAJQHANKJfvSI/JR9js/9qudk/33vnmru1hOtki387tvwlgjgajooohwlEAgEQ0EpgaWOjqK2rkyqDnZb5S/QYCJOvlYea1nxxmlTFcBMIXEFAWgC4ce2DSyhY1aor8lPysbK8THgl9+TOmz9fTJgwQUk9xmbCqv9J5JI3m2k4iNl/Nvmj7MIhwAbIK29xpBbAKzyRLxVOT6ClOglICwBRw7VJV8U41KZsuvGmm2RvTXofW/3bbPR/VX0GR8NXHcMBEAABPQR4MlFDAYNkUilpAKxELU1WJikBHxTkeyXZNTgHAukQkPoSbdiwwU2O7+9Pp4BMr+HZv88r5/Bm9pw5or6hPtMiU15fQ+F9S23w9pesIqz+7xoKJbsE50AABBQTuPEmeRMnjTsCpi7beXyV4qYiuwIkICUANA+V3k2stAT9sTL7X7FS/eyfDf44Gl+205neUYHl/2z3AsovNALXLFwoKqvkNJJlpSWWXJgnY00zMG0a2GTl4lx+EZASAIQZ3agDAzvRYGcaMmn6jBli4qRJMrcmvWdipU9wtL9spsHRiOgbgfo/m32AsguTABsVN90orwWwMqFJRpxMgT/b+IlH1O9zTlYozuUdgYwFgFvu+41y+vJ9SgcJKyozHbN/NvxrIKc/2Uw862/tCWSzCigbBAqawKJrF0sHE6soK5We1KSAXuYKj346xTU4DQJJCWQsAASDoc9SjsolTyvqMnb3O3Wa+p0xUyjSH00AsprO9o0K7P3Paheg8AInwC6Cl994ozQFXVoAIUwtmljphuLGnCOQsQBAnv+0rD1Zmv3ftFI5eI68x9H+spn6A2HRPhDMZhVQNgiAABG47vrrpD2LxrY1Sxo2J4NPysG7Gtc+qH7dM1mhOJdXBDISAGIOKAyxSjUB3i4ju2WGvf7NmDVTaZV41j+1OruGf+GoKU51Q/WvtGORGQhIEvB4vaJxeaPk3cJSULMkhbppb7KW3VhJysSpPCKQkQAQdUUeoLYrV4qzhCybdKz91/i9gtf/s5laaPAPRUjGRwIBEHAEgSVLl4qiIrmJQUV5qRbvpJQplgEc8e3IzUpkNMrRzFi5+p+tbNlQRibV1deJOXPVxsbg2T9b/mczdQwGRT+s/rPZBSgbBK4i4PP5xA3Lll11PJ0DHNeEnQOpThSLfcmydZv0BD5RXVnk5zgCaQsAy+59iPVfC1W3gCNnyYb81eH1r5ac/vjcaWNRjUMEKNjPWdrzjwQCIOA8Assal0lHCqyskNd0JiNBkxZoAZIBwrmEBNIe6dxmVPnsn2slq/6vrq4W8xcsSNgwmROx2X+FnIpPprwr76Flf3Gya4QC/lx5Bp9BAAScQKC4pERcv+QGqaqUl/oFxxhQnUhp+UDMO6vqjJFf3hNI69u4atUqj2kaX1BNw00/Bt7+J5Mab2xSvqZWR3v+s+n0h2f+rAFAAgEQcC6BxqblUgP5heVO5TuoGdSkE4N+Ds2OBAIZEUhLAOj3T19HuSp3si9rGOOhSIELrrkmo4amupgD/UygcL/ZSrzmz2v/SCAAAs4mUFpaKmbMnClVSVmNZ+rC9GhoU5eLK3KZQFoCgBHVs8Yk+2OYM2+uYIMclSmbs/8wWfu3wNufyu5EXiCglQB7B5RJfjIElA11nqw8QxifXrxqgx4jg2QF41xOE0gpADTe9UglrY3fp7qVHPFPdu//osVyP75EbeC1/4Yszv5P9wYECwFIIAACuUGAI4/KbgmspC2BGpK/pMT/GQ35Iss8JpBSADC8AXb9q3z/iuzs34r6LVE/Vpd4s7b2PxSMiN5hBPpJ1Dc4DgJOJMDLkPMWzJeqmuyzL43CHkzjGlwCApcIpBQAKBjN2ktXK3xTIen8h8NzsjGNylRfLheBUEUdsOVPBUXkAQL2E5DVRPoo4mmJpEOh5K00b1u5YYOcVXXyjHE2TwmkEgB4rL1DddtZ9c9LADJpoWL1v9/nFvyXjcQhfjnULxIIgEDuEZgydaqorKyUqnhlhZZlgKLwgP9mqQrhpoIkkFQAaLzn4WuJinLrf1kVGHv+q29QW52szv4p0h8SCIBA7hK4ZtEiqcqz91PVmkyuiGmYq6UqhJsKkkBSAcAlosq/TLG9sJJGMLIqt0Q963Ebgtf/s5G6hkLY858N8CgTBBQSWLRYTgDgEMOl5AVVdaLFUeXPbNV1RH7OIZBUAKD1f+VfJnb8ww6AMk0sOMhK24nKqiO3v4rNCRIVddlx9vTXhtn/ZUzwAQRykUAVeSSdNHmyVNV17AagR8vyW+77jXKpCuGmgiOQcCS+6FryNtVEZNX/02fMELwDQFXigZ/3/mcjdQwEEekvG+BRJghoILBQUgugyTWwZzQYulVDM5FlHhJIKAC0DBUvpfZWqWwzz+JLyZe2TFKt/q8o9mRl61+Epv/nSQBAAgEQyA8C7JWUVfqZpgvPQ+U7rEmr6VKuuc20bbg+NwgkFABonFL+JSou8pEP7cy38Hlp28xc8v6nMtX4s7P2f64/KFgIQAIBEMgPAsXFxWLWnNlSjSn1qxcATAFDQKnOKMCbEgoA5FpSuQAga/Qyb/584fGqG7DdJIRUlshtQ7TyHQmGo/D3bwUg7gUBhxJYtEjOOym579PRoiUr1/5mjY6MkWd+ERhXAGhsfMRLc9SPqW5qKfnBlkkLJX9cicqqosE/G8Z/bX1BQYaVSCAAAnlGgDUArAnINBWRdtMjsXyQohxX2AiuSnENToOAGFcAEPWBFcRGncUdZcbrXTK+/1n9P3XaVKVdVUPW/3anEPn67xkO2V0sygMBELCBgIt2NslGCPRrWQaAHYAN3Z7zRYwrALg0OJPwk/c/FgIyTVOmTCW7gXGrmWlWset9bpcoK8rcYEeqsDE38b5/TP7HAMFbEMgzAtOmT5dqkaxmNGlhGp7hScvDyZwkMO7IampY//dLOr2YPkPuR5WoN6pL7V/757qwAIAEAiCQvwTkBQAtdgALm+55eGL+0kbLVBC4SgC4GEziJhWZj81DVsqdKilVjy177PtsWP8PBCKCDQCRQAAE8pdAVXWVKC/P3AePl+KieCm6oOpkRs07VOeJ/PKLwFUCwMVgEkUqm8kqfN4CmGlio5qGhoZMb0t4fZGH6uG9qskJr1d1omsI+/5VsUQ+IOBkAtJaAA12AAa2Azr5q+KIul01GuoIJuEvkVz/J+M/GbuBRGSzsfUvTHv+eynqHxIIgED+E5AVAPySO6SSEdXxLE9WHs7lHoGrBAAy01utuhmy3v+mK1b/s/c/u1M3G//B+s9u7CgPBLJCYJqkzZLsMzJ5I43ZS++5f0bya3C2kAlcJgBwEAkaq5arBiIr3cpK0+PV30U7ELJl/T9efXAMBEAg/wiwDQDbAmSaPB638NGWZ9WJrAuUT+hU1xH5ZY/AZQJAKBi+lqqidJrspm13Muv//lK/qK2rU0amvNhtu/OfodEIQv4q60FkBAK5QUB24iJrKJ2cSvSG5OdxtpAJXCYAmC7jGtUwpGf/09Ru/8vG+n8ntv6p/johPxBwPAFZAUD2WZkMiGmqf6YnKw/ncovAZQIALVYvUF192bUt2bW0RPW3e/2fA/70DsP4L1F/4DgI5CsBWQFAjwZAKH+m52u/FWK7LhMAyFhNuQZA9ks9TaEGoIS2/nndmXshtPKF6KHBPwrrPysIcS8I5CQBv19u+ZJDCsssl6aANP2ib5cUl+F0IRK4TACgyABKpUXe/y9j2CJrSJOoA8uyYf0Pv/+JugPHQSDvCchqATQIAEakv2h+3gNHA6UIXBIAVq1a5SFn9XOkcklwk488XMkk1er/Up+9vv955j9MBoBIIAAChUlAdguzT2HY8zh50+1WOrGL54vX3CdwSQAY9k+fTc1Rug9FZvbPSFWq/zm/UpuD/wzS4I+t/0weCQQKk8AUyQimss/MpJTNqPKl3aTl4WTOELgkAJgaDACLJKXZuoZ6ZQB57d9n8/o/+/5HAgEQKFwC7Ma8vKIiYwCyz8zkBRnQACQHVLBnxwgA6reLyEqz1dXVyjokG85/WAOABAIgUNgEamoyf45xYCCV7s+5Byi6KzQAhf1VTNj6SwKAcKmXEmXWs8rKyoRXUnMwXiv9Nq//8/a/4SAEgPH6AsdAoJAIVNfUZtxcHvzVRwY0YQSYcU8Uxg0fCQCmqVxKlBEAqmtqlJK3WwOA2b/S7kNmIJCzBGQ0ANxYWc1pElBlK9Y/MDXJeZwqUAIfCQBC7RZAlmJdrsz33tcoFAC4+BKvvTsABqD+L9CfEpoNApcTkJ3M6LADiJoe2AFc3j34RARiAsDKtb/J0251jvcpM9ktgFUS62aJerKYBn/SqNmaBgPw/mcrcBQGAg4lICsA+Hxy26eTY1Dv5TV5eTibCwRiAkDYM6pe/S8Z2UqlBqDIM1bBob87wrT+PxKK6i8IJYAACDieADs0k7Fnklk6TQXDNNR7eU1VJs47n8CFEdJU7yhC9ktcXa3OBqCYXADbmQax/c9O3CgLBBxPQGZHkwYbAOaEJQDHf1vsr2BshNQRA6BIQgPAvrArKjPfO5sIW7HNGoCBUaj/E/UFjoNAIRKQWQbw0HPQTW7UFSflWl7F9UN2WSBwUQOgfn1IRgNQVVWldA+s7RoAGABm4SuMIkHAuQRkBABujQYtwLTGTzzidy4p1CwbBC4IAIqDAMX2skrEAZD9sSQCZ6cNAO//D2D9P1FX4DgIFCQBWZsmmQlUCsCGOzg8L8U1OF1gBFwbNmxwqw8CJBdSQKUAwIO/nTsAAmEY/xXYbwfNBYGUBKpr5WyaNGgABIICpeyugrvAdWjYy4vuciN2Alwy6/+clYzBTIIqCDtn/1wHzP4T9QSOg0DhEpB9punxBSAyd01YuF1XEC13+VyectUtlfUBoFIDYPf6/yjU/6q/RsgPBHKeAG8DLKPtgJkmHb4ADBHNvCKZVhzX5xQBlytoKP9SsDW/TJJ1nTleWXYLAFgCGK8XcAwEQEDmuSb7DE1Gm5ZElT/rk5WHc84n4Iq41AsALoktLCwpF5eUKCPGYYDtTFgCsJM2ygKB3CFQUVGZcWVlnqGpComa6p/1qcrEeWcTIHf9YeVSoUwMAJ/Pp5SURyIOgWwFyI+CCMIIUBYf7gOBvCYg82xzabBgpimR8md9XndcATTO5Yq6ylS3U0Z69eawADBKgz/JAEggAAIgcBUB2WebzHP0qsLHHKCJivJn/Zjs8TYHCbiihnq1kIwXKxkpORlvj41LAMEItgAm6wucA4FCJiD7bJN5jibjDBuAZHQK8xxtlldvGZrtJQBWn+lQoSX6ioQjmP8nYoPjIFDoBGQFAJnnaArWWAJIAajQTrvMqHoNgMvI3I+17I9kvA6zc/bP5XMUQCQQAAEQGI+A7LNN+RIAdgGM1z0FfYwmyobydSEZydUrETwoUc/ZaQDIdYAAkKgncBwEQEDaBkCxIaABGwB8Ga8gQAKAjiWAzDUARb6iK6om/9F2AQBLAPKdhTtBIM8JFBXJ7XBSrQHALoA8/6JJNM9lKt4byoGA+C/TJCslj1cOlgDGo4JjIAAC2SAg+2xTLQDQQiVsALLxBXBwmTxVV/qlkFH/Mx/ZdbLx2EIDMB4VHAMBEMgGAdlnm+yzNEkbS2LB35JcgFOFRcAlTFOpDYCMASAjl/2RjNddEgqI8bJJ+xhsANJGhQtBoOAIyD7bVGsAGPyJnmqlz/uC68w8azDHzM07DUDmCxDWejXCrgCRQAAEQGAcAj6vpA2AhpmMxzuk9Hk/TnNxKIcIaFgCyNwAkHmp3AUgY4Ngqc8w/lvCh5tBIJ8JyD7bdGgAQi4XBIB8/rJl2DbSAKi2AZATAGTVZBm2V8vlGP+1YEWmIJA3BGSebzoEAFdYrcY3bzqoQBtCNgBq/UPLGq7I/EAS9ZndSwBYAUjUEzgOAiDABGSeb7LP0mTEoy61Nl/JysI55xNQvwQg4QWQMcn8QBLh1bB0lqgoHAcBEACBlARktgJq0QAotvlK2XBc4GgCLAB4VNZQdvDV8WVX2a5keZmIBZgMD86BQMETkHm+6dFkGkqf9wXfsTkOwEVfsgGVbYhK+sUPBoPKqqHnh5OkejACSAIHp0AABGSeb1ENa4uUpdLnPXo2twm4aOwaVNmEaFQuNK7MDyRhvWXVEAkzTH4C439yPjgLAoVOICQxwZF9liZj7XJFlD7vk5WFc84nQAKAoVQiLEQNgJ2hh53/lUINQQAEriQgM8GRfZZeWfbYz1HTo/R5PzZvvM89ArQEYCr9QkTN7GsAIpLLELLd55bb+ShbHO4DARDIIQLhcFjIzOZl7kmFxRvFEkAqRoV0nv0AKBUAIpJLADIqskQdZbdnPjdbUiCBAAiAwDgEZJ9tOgSAaCiq9Hk/TnNxKIcIkB8AQ+makCk5+w4GQ8qw2a4BsNnmQBkoZAQCIKCdgOyzTYcRYLevUunzXjs8FKCVAAcDUioRymoAZNbIEpGxXQCABiBRV+A4CBQ8AdlnmwYNQOjY1m+OFnyHAMAlAi7TpXYJwKR9JvyXaZL9kYxXTkTODGG8rNI6BhuAtDDhIhAoSAKyzzYNRoBKJ3sF2Zl51mgXbQNQ/qWQUV3JrpON1x/QAIxHBcdAAASyQSAUkvNxIqtNTdJG5c/6JGXhVA4QcEUV2wBwm2VUV7JS8niMw5J2COPllc4xN2wA0sGEa0CgIAnIPttknqMpAGP9PwWgQjtNHirV2gAwQBnVleyPZLwOs3sXgNeDfYDj9QOOgQAICCH7bJN5jibjrdrra7KycC43CLh0uIaUkVxlfyTjYbZ7CaDIg22A4/UDjoEACFgQACR9qiRirtrpW6JycDx3CJAAoEMDkLkVnkobALZBlLFDkO22ImgAZNHhPhDIewKyzzaZiVRSmIb6Z33S8nDS8QRoCcCt3DBEZvBVqQFg6qPhzHciyPaWD9sAZNHhPhDIewKyzzblSwAaDL7zvvPyvIEukjKVG4bISK6yP5JE/TMazlwLkSivVMfZBtDrxjJAKk44DwKFSEDm2Sa7nToZX1ODwXey8nDO+QRcblO9a0gZyXV0dFSwz2xVKWijAMB1xjKAqp5DPiCQXwSGh4YzbpDMMzRVIYYGg+9UZeK8swm4TI9P+RKA7P7V3p5eZbTs1ABwpSEAKOs6ZAQCeUWgp7s74/bIPkOTFaTD4DtZeTjnfAIu2jOvXAAIheT8+vf0ZP5DSYTYThsArgMEgEQ9geMgULgEWJXf25v5xEb2GZqMNFlFKX/WJysP55xPwDUgyvpVV3NUMrBPT3ePsqrYvQTg97mV1R0ZgQAI5AeBvt4+EYlEMm7MqOQkKmlBplD+rE9aHk46noCLg0OQZHhGZU2Dkl9eGVVZonoHKSCAffsAhPD74AwoUV/gOAgUKgFZraZsBMEUnI+nOI/TBUYgNmqR/fohle2O0ODLf5mmbom1skRlsC+AkI2GgG6KCIhlgES9geMgUJgEZJ9pwZA6g+hL5L0hpc/5S/niTc4SiAkApiEOq26BjBagt0fdEgC3x247gNIiLAOo/h4hPxDIZQI9XXJ2TRo0AN17n/1BZy6zRN3VE7igt44aygUAGTuAQCAgRoYz3zKTCEsgnPnaW6K80jmOZYB0KOEaECgcAjIaAHakFlK4JfoibeXP+MLpxfxt6QUBwFC7BMC4ZDQAfF+3QkPA4WDmyxBcB9lUCkNAWXS4DwTykoCMDYCG2T+zhfo/L79h1hoVEwCiRki5dCj7Je5VuBVwOGivBqDE6xaIDGztC4m7QSBfCLBzMxknQLKTp2TcyCRK+TM+FhwWUgAAQABJREFUWXk4lxsEYgLAey88fYqqO6KyyrJfYpUagECIjBGj9u0F4MEfWgCV3yLkBQK5S0B2V5Ps5Ck5qSgEgOSACvLshSUAIchNtDiikoCsFavsjyZR3e1eBqgo9iSqCo6DAAgUEAGZ9X/Go8UHQMSDJYAC+u6l29S4AEDxc9WqiNgDlowWQL0AYO8yQEUJBIB0v3y4DgTymYDss0yDBiAsunzwAZDPXzbJtl0SAGgbu3IVUTCY+V7Wvr4+UkeoU9vbbwfgQmRAyS8jbgOBfCIg69lUVnuaiB09TU/u3fuYnH/2RJnieF4QuCQARB2yE4DdZrL7TFXJ7iUArjeWAVT1HvIBgdwlILMEEKatyzLh1JNRMoQB9X8yQAV87pIAYBrO8AXAfdHd3aWsS9glcDiiTqOQTsUgAKRDCdeAQP4S4EFcxrGZzLJpKoqmMJVrd1OVifO5QeCSADA6NKz8SyL7ZT7TqjQ0gRiyeTtgeTFtB8yN/kctQQAENBA4f+6cXBAgyUBqSZugYXk3aXk4mTMELgkA+7dvGaR5stKRV9aY5fSpU0oBDozaawjIcQHgFlhpFyIzEMgpAqckn2Gyk6akcKJwApSUTwGfvCQAMAP6oFQLEKb1fJlQmO3nzwt2oqEq9Y9kboxotexqv9dqFrgfBEAgRwmcbpGbxMi4UE+FKGq4lT7XU5WH87lD4DIBgKqt/IsyNBLImAbvAmg9fTrj+xLdMEpRAfnPzlTt98AroJ3AURYIOIQAT3razp7NuDb83BuReF4mK4iWInve2/q9jmTX4FzhErhMAIia6q1FhyW/0LISdKKu7A/YqwXgZYBKOAVK1B04DgJ5S+DsmTMiLBHMZyQwKjgQkMpEuWEHgEqgeZbXZQKAKdS7i5TRADBj2TW0RP3TP2KvHQDXo6YUywCJ+gPHQSBfCcjaMMk+K5Nx1LG7K1l5OJdbBC4TALxGdL/q6rMhIO9tzTR1dXYqDQ08OBom6TrTWli7nrcDekgTgAQCIFA4BE6fklu+lNWWJiPrMoXyZ3qy8nAutwhcJgDs3Pr9Vtq/dlJ1E4ZG5OIMnVZoB8CDPwsBdiYODlRFtgBIIAAChUEgFAqJc21tGTeWVf+8BKA6mVHzDdV5Ir/8IXCZAHChWcZrqpsnK9kqtwPAMoDqrkV+IAACYwicaW2V8uTHxn8qXaBfrFLfrIqRvWOqh7cgcBmBqwQA8hqlXAAYGs58JwDXUrkdgM2GgNwGDg/sc1+FmU8hgQAI5BkBJ63/C2G8sWXLlszXX/OsT9CcxASuHpki0dcTXy53JkQWsaFQ5up3dqU5ODAgV+g4d/FWwEDI3u2AXI2KEvc4tcEhEACBfCMgq7UclpwkJecXVT6ZS14ezuYagasEgL0vPsULWAdVN0TWDkC1FqB7yP6gWIgNoPrbhPxAwHkE2HlZe3t7xhXjuAEjCh2fxStA27ohAMRh4HVcAlcJALGrNHxxZLe4yKrUxm0tHewetl8AKPaOjzlRHXEcBEAg9wi0kvW/zDq+rI1UCkKd727b/GGKa3C6wAmMOzIZQr3qSFbFJbulJlG/higy4IDNtgDYCpioN3AcBPKHgKy2UnZylIycYRi8lEt7n5BAIDGBcQUAj+nbTrco/fJwXAAZP9cD/f2ih2wBVKauocztEayUz14BkUAABPKbwKmWFqkGyhpJJyuMtj2zAIAEAkkJjCsA7HjxO910176kd0qclFV1HT6o1iShj4IDqXa5mQxH2G4PRMkqg3MgAALKCXS0d4jurq6M8+W4AaPBYMb3pbrBMCNY/08FCec5AGCCZArlXyBZQ8CD+w8kqKTcYR78e4bt0wLwsgMSCIBA/hI4uF/O4Z4O9T9RPrtn21PKA7vlb+8VbssSCgCmBkNAWQ1Ab2+v4AAbKpOduwFGgtiKq7LvkBcIOIkAG/4dktRSyj4Tk7bfUD95S1oeTuYsgYQCQHGR+w1qldJpciRC+/Alt7uo1gIMjkZE0KYQwbzkgAQCIJCfBFqam8XQ0JBU43Ss/xsC2/+kOqMAb0ooALz1zHcHyHRtj2omfQNyP5TDhw4JXi9Tmbps8AnAyw39AbX1VskAeYEACFgjcEBS/c+ToSDFDlCdyO2a8uVb1XVEfs4gkFAA4OrRyrXyL1L/oJwAwE42Thw7rpRax2BIRDQb6LUPhGw1OFQKCJmBAAgkJRAkA77jR48lvSbRSdnJUKL8Lhw3T7z3wtNy2xGSZ4yzeUggqQBgRNVvJeHQwEPDctEBZSXtRP3Gg/+5fvUWuPHy2Pr/vMb84+XgFQRAIDsEjh4+TOHOM1/iY7sBLQKA4cL2v+x8FXKy1KQCgKdi5C1qlfIYlX0Dg1Kwmk+eFCOSoYUTFdgxGKQwwXpU9C1dAcz+E4HHcRDIAwIHJHco8SRI9ZIm49QRzC0PuglNSEAgqQCwY8sWnqq/k+Be6cMDg8NSITPZZ7ZqnwAkiIsTnSOCAwWpTGd6R2ntP/OZgco6IC8QAAF9BPrJSVnr6dNSBWiZ/VNNXMKlfNlWqoG4KScIJBUAuAU0Pr6quiVsGDcwNCyVrazEnawwXgo41jEiRhRECiReopUG//YBfUsLydqCcyAAAvYQOHhAzj8JT2Rkn3/JWmYK48DuFx4/l+wanAOBsQRSCgCGGf3x2BtUve/rl1sGOH/unJTHrVT15i2BR84PW3IQFCaHP8dJkOjA4J8KN86DQM4TkN2azIbQMkGDUgEzTFPLszpVuTifuwRSCgAxj1KG2KW6iewBKyRhPMP1kJW8U7WBNRPNXSPiaPuwGMrALoDva+sbFfvbhmwPNJSqTTgPAiCgnsC5tjbR080e0zNPutT/htvzZOa1wR2FTCClABCDYwotX6x+SZ8AspJ3uh3NRoFHSAg4eG4oNrDzZ3bny+p9TrxkEKDlAvYjcJLsBz48MxTbTcCCABIIgED+E5BdigyFwkKL9z8h3tr9/HdP5D95tFAlAU86mZme0A+NsPcf6VpvOtenew3vBqitrkz38kvXDQwMiNOnTolp06dfOqbjDQ/y50LBy7YKGuQdCeO8DtrIEwRyg0DMGJkck8kk2R1Qqcoi73+bU12D8yBwJYG0NAB7n/1BJ9249cqbrX7m8MCBUTljuff27rVavNT9GPylsOEmEMgbAqyBDEhuR9ak/h8NFRlY/8+bb5h9DUlLAIhVx9AjYcpKxMfJK2BnR4d9pFASCIBAwRNg473dO3dKcRgJ6HH9S5V59v3/frxXqlK4qaAJpC0A9JoVzxEp5V8ytgOQtYjduUO5i4KC/jKg8SAAAskJHCHPfz09PckvSnBWdrKTILuPDpuGFhutjwrAu3wlkLYAcGzrN8kjoPptJmEK8CMbE/vokSPSlrj52qFoFwiAgD4Cu96Rm/3zJEc2DkqK1nSaHUXKl2dTlInTeUIgbQHgQntdm3W0W9YnAP+oZH+QOtqBPEEABPKXgJVlx8GY61+13kYvkv7h3r2PqQ8pmL/diJaNIZCRALBn6xMUG8BUvtWEvWKxJkAmHTp4UPT19cncintAAARAIG0Cu96RX3Ls7RtIu5yMLozq2aKdUR1wcc4SyEgAiLXSUL/exDP57t5+KYi8JWfPTuV+iqTqgptAAATyk0BLc4tg5z8yiXc6sQZAQzq858XNePhpAFsoWWYsAEQj0ad0wOkhCTkSkVOR7f/Vr8TgoJxrYR1tQZ4gAAL5RcDK7L+zW7nt9EW4Joz/8utrZntrMhYA3n3xqWPkEu9t1TXlmXx3n5wWgMNq7tkFQVh1nyA/EAABIc6eOSMd9Y99negI/EP9YkaMiJbJGPq8cAhkLAAwGtOlR/LsoWUAFgRk0of7PhDDw3IRBmXKwz0gAAKFQcDKduPOHl2zf/HGey883VIYPYBW6iIgJQAEjciPqEJyLvyStCRCgz8vBcikMAUWenfPHplbcQ8IgAAIjEug/fx50Xzy5LjnUh0MhkJCNt5JqrzJeQrU/ykh4YJUBKQEgA+ff7pHGIIdAylPXawFIKNAmbTvvfdFIBCQuRX3gAAIgMBVBHZasPzv6tG2O2nEbUS3XFVZHACBDAlICQBchmlGtUigvJ4vu2UmGAyK9/a+myECXA4CIAACVxPo6uoSx44cvfpEGkc41Lkmv/9c+jM7t35fzmAqjbrjksIhIC0AiHb/84SpVQeqrt4+affA77/7LrQAOjoFeYJAgRHY+fYO6Rbz7F/WxXnKQk3Xf6S8BheAQBoEpAUA9j5lmsbfp1FGxpeEw6QF6Jfb1sdLAG+/+cuMy8QNIAACIBAn0Hr6tDgsGfKXnZrJPr/i5Sd53bFn2+Pbk5zHKRBIm4C0AMAl+MqH/9MQoj3t0jK40IoW4IN9+8T5c+cyKA2XggAIgMAFArwT6bVXXpXG0d3Tr232b0aNr0lXDDeCwBUELAkAO7ZsGaFNe/94RZ5KPoZCYengGax6e/XlV7T9CJU0EJmAAAg4ksC7e/aKrs5OqbqxM7OefrmdTGkU+P7eF5/gpVckEFBCwJIAwDUo9nq+TVoAufiYKZrQacGKljUA7BsACQRAAATSJTA4MCDe2SHv54ydmcn6Mkmjjpj9pwEJl6RPwLIA8NYz3x2ICuOb6ReZ/pVB8qJlJYTmW2++KUbgHCh94LgSBAqcwPbXXxcheu7IJB742ZmZlmSIQ3tWzP6ZlryRacESsCwAMDlf1PMv9CJntZcCfWe3/F5aNgh883/eSFECToMACICAEC0nm8XRw0ekUXRzPBNJT6YpCzWNvxaPPirnJjVl5rigUAkoEQB2vPidbnLdo2Vryijt7e8bkJctOFAQ+/JGAgEQAIFEBNj/yGuvvpLodMrjbPnfbWHJMmkBhjhZNtLydNJrcBIEJAgoEQC4XJfh+ga9aHHD197ZY0myZoNAjetyEthxCwiAgJMIcDCxXgt++60+o5KxMIX5d9u3bw8nuwbnQECGgDIBYPcLj58TpvEdmUqkuoel644ueTvDzo4O8f6776UqBudBAAQKkEAfOR7b9c5O6ZYPjwQsaSlTFHy2z6z6XoprcBoEpAgoEwC4dNNr/h29yFnQpKg+BwkKjMrHH9rx1lticFB+KSFF9XAaBEAgRwm8/uqrgoOJySTecnyuo1vm1vTuMY1/OLb1m6PpXYyrQCAzAkoFgL3Pbj5FxWuLUX2uoyuz1o25muMEvPH69jFH8BYEQKDQCRw/dkycPHFCGgNPTNhOSVPqNL1F/5+mvJEtCAilAgDzdBnib+hFi7XqSGCUXGzKO9lg156nWlhGQQIBECh0AmEK17v91dekMbDL8o7uXun7U99o/vPeZx8bTn0drgABOQLKBYBdL2zmfTTaQlW2ky0AW+zKptdeflmE6IePBAIgUNgE3qZlwf5++X375zu7dRoX95mhkm8Vdg+h9boJKBcAuMJRU3ydXmhnoPrErjZZCJBNPT094jXaFYAEAiBQuARY7b939x5pAEPDI5aclKUu2PjW3lcek3eCkroAXAEC6pcAmOm72zazD95ndfHlSFu8HCCbDuzfL9g/ABIIgEDhEWB3v9te2CrdcO2Gf0IMm57gP0tXEDeCQJoEtGgAYmVHhVa/1VYMArl+HO2rq0veqDBNvrgMBEDAQQTYH8gLzz0nAiMj0rXqIoc/QZ3LiKb4j73P/kAuGpF0q3BjIRLQJgDseXHzLgoSpM17FW8J7Lbgd5sNgJ5/5lnBr0ggAAKFQeDtX74lzrTKewblKKVWgpSlQbnTa3q1Tp7SqAMuKRAC2gSAGD/D9Uf0Km9lk6IT2AKXLXFlE4f8fI32ACOBAAjkP4HmkyfF7p3yDn+Y0Dky/OMlAF3JMIw/ZtfquvJHviAwloB77AfV788efX9w0rwlQ6QJWK86b86Pf4jsJbCirFQ6+472dlFVVSXqG+ql88CNIAACzibATsB+9pOfWtL4DQwNi06t2/7EW3u2bv49Z5NE7fKJgF4NAJGaXTbybXp5Xxe0/oEhMUSuOK2kV2lrYHc3hG4rDHEvCDiVAE8UXnj2OUuhwaOUx3mdHv+ECNPuqS8RQ33qBad2EOqVNQLaBYAtW7bQxj3Xb+n8Yre1d1oKFsR+AZ77xTPS7kCz1nsoGARAICWBHbF1/9aU1yW7oJ1U/yFJd8HJ8r10zjC/eXH31KVDeAMCugloXQKIV77t2PutU+YumSoMsSx+TOUrW/YGgyFRUS6/FDAyPCyGh4fEnLlzVVYNeYEACGSRQEtzi2ANn5XUPzhkyfdIGmWfLfJ6f+304fe0+RROow64pAAJaNcAxJkaIfGn9F7bvjten7OyK4Dr+asPPhSHDhyMVxmvIAACOUxgaGhIbHv+eUtGe7zdr61d22MrRpdspP7wrWe+K+/jPIf7CFXPLgHbBIBdr27uMo2YEKCtxewhMDAq7yCIK/bKyy+JHtgDaOsjZAwCdhCIr/sPk2ZPNnEeZ8516HT3K0gr+srurZt/JFtH3AcCVgjYJgBwJfe+sPk7JO2+Y6XCye7lH2yrxR9siJYSnnvmGVpSgDYuGWucAwEnE/jlG2+K1tOnLVWRff1bCUGeRuFBki5+J43rcAkIaCFgqwBALTCFETMIlN+8nwIDO+o4S0aBVlJnR6d45uf/bSnokJXycS8IgIA8gffefVfs2bVLPgO6k9f9OdSv5vQPe7Y9dVhzGcgeBBISsMUIcGzp5Bvg3JT519eS7mvF2OMq37NBoNvtEiXFRdLZ9vf1xbYGzps/X5BzDul8cCMIgIB9BA4fPCRefvFFSwUGaRJxuq3dku1AqgrQXr9mX9nI51sPHAinuhbnQUAXAbs1ALF2uMzoX9Cbc7oaxfm2d7I9gDU1/tHDR8TrFDMACQRAwPkEWpqbKcjPC5YqemHdv13vuj/V0DCN39uxZYt8QAJLrcTNIHCBgO0aAC72zLEPRyfNX9JG8+rP6uyIIQr4UVVRZmkGf/7cudj9U6dN01lV5A0CIGCBAP9Of/7Tn4qIBdfgXDyv+w8O6R6XjWf3bHviUQvNxa0goIRAVgQArnnb0X0fTp675Haygp2lpCXjZML+AdgmwIqrYM6WjYlKyd3whIkTxykFh0AABLJJgHft/ORHPxajFncA2bDfnzGNeEzXx1uPvd+bTWYoGwSYQFaWAOLoo27zt+m91nB8qox5Xnv5FXHs6NF41fEKAiDgAAIxH/9bfiJGLIT35WbwREH3fv8LuMyvvbPt8eYL7/E/CGSXQNY0ANzstqMfdJJBoI9WxG7TiYFjBZSV+oXHY625x48eE1OmThUVlZU6q4u8QQAE0iDAM36e+ff29KRxdeJLeN3/1Nnzel39Xih+/0hZ4KGOAwe07YJK3EqcAYGrCVgbEa/OL+Mj86fUvBn0Vq6mG6dnfHMGNwyTEGDVHoAfFCwEzJo9W/hL5d0OZ1BtXAoCIDAOgTD55f9vWvM/f+78OGczO8QGw+xJVHMadovImvd+8UOtxs+a24Ds84xAVpcAmOX27dvD9MP4Ar21tnk/RcewS0/26sWDuJXEs46fkcqRtwkigQAI2E+Af8PPP/OsONN6xnLhvf0Doruv33I+qTIwTPO3d279/oFU1+E8CNhJIOsaAG4s7Qronzxvya/o7f30p23TPe/vDZGVcHmZn4uVThw98OSJk+Kaa64RXq9XOh/cCAIgkDkB3ud/5JB1/zk86z97Xuu8I9Y4eqA9sXvbk49m3lLcAQJ6CThCAOAmnj2279iUeUtK6O3HdDZ5lFz88u6AMj8XJZ8CgYA4feqUmLdgAdkWeOQzwp0gAAJpE3jj9e1i3/vvp319ogt5SbCVnP3oTuT69IDpKf5U25G9Wo2ddbcD+ecnAccIAIx3/tTq7XbYA4wERoWLvPv5S4ot9SpHGzt5/HgshLCvSN7roKVK4GYQKAACrPZ/+cWXlAz+PAlgoz+ry4FpYB/2iMjdu59//Gwa1+ISELCdgKMEgObm5ui0ede+bArXJiJhTU+fAiXvDPB5PaK4iDYhWEi8/Yg9Bs6cNUuU+LVW2UItcSsI5C4BNvh7ngJ0HT50yHIjeLtfy9lzFOcjajmvVBnQuv8ju7Y99XKq63AeBLJFwFECAEOwyx6AyxocHhHFFC/AZ3EdnyMHsg/yqdOmivLycs4aCQRAQAEBNrpla/+W5hbLuYUjEXHqjC3b/diQCev+lnsMGegm4DgBgBtslz0AlzU4OCxKyR7Aa3Edn2cph2iG0tDQIKqrqzlrJBAAAQsE2MkP7/NXsdWP7X5Y7T9KgcJ0J6z76yaM/FURcKQAwI2zyx6ANwWyNXA5OQpyu63h4IfMkcOHRUVFhagnQQAJBEBAjkAPOff5yQ9/ZNnJD5fOa/1s8Me2PzYkrPvbABlFqCFgbcRTU4dxc7HTHoAfEBwAhGMGuFzWXCNwXsePHaPtgR4xecqUcduGgyAAAokJcGAfnvmzka2KxFv9eLnPjoR1fzsoowxVBBwrAHAD7bQH4Nn7ED0kKsrLYjsErAI+1dIigsHRmHGg1bxwPwgUCgEO6ctR/awG9onzOtfRJfoGBuMftb5i3V8rXmSugYCjBQBur532AGwZzPuDK0kIMGiboNXUdrZN9Pb2xLYJqsjPan1wPwg4mQAb0j5H1v5WQ/rG29jZ3Su6evV7+ePy6HFxOOopvg/7/eP08ZoLBKzpu21qYenIqa9SUb+0ozheJ2wll8Gq0qEDB8V//+xnFG1Mv/GRqjojHxCwm8B7774rXnjuuZiTLhVls4vfDhIA7EjsU2Tm1MnG/PmTsQ/YDuAoQxkBx2sAuKV22gNweRw3IEjWwmwYqGLm3tfbK061nIoFEfL5rPkd4PohgUC+EGCbmV++8aZ4+5fq5Hse/O0J7XuhFyY11FG00ZJaV8Rct/jWO37yqx3btUcWypf+RzuyS8C6ntvG+i9f9/AqYUS3UZG2uN1jT4HTJjVYNgyMI2JHQevvvUfMmDkzfgivIFCwBHib39bnnhetp08rY8Bqf7tm/lzpmqoKMaGuZmz9Pwj7XHf+4BuP6g8yMLZUvAcBCQI5oQGIt+vssfebJ8+/4SB9/jX60y68hGhvPxsGcvAgq7sDuA1h0iwcPHCA1JwRMW36dCXaBc4XCQRyjUDLyWbxs5/8RHR3dSmr+rmOblrzty9KJ+8a4tn/FWkCawJuaLp5y77dv7Rn68EVFcBHEEiXQE4JANyos0f3HZw0//p2QxgfT7eRVq5j72HsJ4BUfJb9BMTrwWFMT586LWbMmimwJBCngtdCIMC7bVjd/8pLL8cEYhVt5mUE3upnl7U/15mdh02dWJ9IiJ8gDPdaCAEqehd56CSQcwIAw2g7+sGeyfOXsAZgFX/WnfihNXDRY6DHowbZQH+/OLh/v6irrxdV8ByouwuRvwMIDA4MiF/8/OeCDWNVJf5tstHuIAnpdiWOHzJ98oRUWsGJEALs6hGUI0tAzWgmW7qF+0gTsH3yvBsmUhbLLWST9q1RmmX0Dw6JkljsADXhf2Pug+lhGImEKY7AtESzibTriAtBwKkETp44QSr/n4qe7m5lVYywb39y72uTh79YvTluyPQpE9PVBkIIUNbbyEgHgZwVABjG2Qc/vXXyme5ryRxgkQ44V+bJqkYWAnw+ryhSaM1/9gwvCZyKGQcWFdli33hl0/AZBLQQ4Bn6m//zhnj9lVcFC7yqUiyqHwX2scO3f7zOHnIVPoMG/wzjhkw0hXsNLQf8BDYBcZJ4dQoB7YZ0uhs6d/2Xi6pEL+0MMFbpLmts/hPqa0RNZcXYQ5bfF5eUiHX3rI9tF7ScGTIAgSwT6KdlrheefVawQyyVaZSib/LMPxyOqMw2aV5sBMyDv2z4cJo7vF/kdd35nX96VJ0KJGmNcRIEUhPIeQGAm7hi/QMVEeH+H3p7Q+omq7uirrpS1Neqj/zX2NQkPnbbranWGNU1BDmBgGICHA/jpa3bRCAQUJoze+o8TYF9WLNgV2JfILzmz9uCrSQIAVbo4V4dBPJCAGAwTfc8TKq26NvCFLN0gEqUZ1VF2XhbgRJdnvbxSZMni7Xr14nqmsv2GKd9Py4EgWwQCJEDrV+++aZ4nzz7qU68G+cMGfzxUpydaQpZ+/OWPxUJQoAKishDFYG8EQAYyLK1D851u1xv0ePB1li87DGQHxIqvAaO7VgOT9zYtFysWLlSeDxqDA/H5o/3IKCSwNHDR8T2118XbO2vOtnt3S9e/4n1taK6sjz+UdXrez6P6y4sB6jCiXxkCeSVAMAQlt37UKMrar5Ob5X/apNB5rXBKRMbhI/CAKtOFZWVYtXq1RRUaI7qrJEfCFgm0NvTK1579RXBzn1UJ57tt3f2iO4+e4L6jK1/XU2VqKc/TQlCgCawyDZ9AnknAHDTm9Zuust0iefpra2O99lQaFJDrTJ14ZXdOHvOHLHqztWikgQCJBDINgG26t+9cxf97aStrOoN8oKhMKn820VgNGh7U6sqymO/Zc0FvxcJB+98+t//pkdzOcgeBMYlkJcCALe0af2mz9NSwNP01vaIh6wyZP/gqpcEuF28FHDjTTeJ5Tc2pbsXmW9DAgGlBJpPnoxt7eulQFc6Em+35YA+dhr7xdvBS3pTKQaITeldEgLughBgE20UcxmBvBUAuJVN6zZ9yTTEt+it7e28sCRQT0sC3suAq/rA3gNX33UnAgupAop80iIwQOv72197TRw7cjSt6zO9iFX+5zu7RU+fejuCdOrClv5s8a9DeE9SPoSAJHBwSh8B2wdGfU0ZP+fl92zcKEzju3RW/eL8+EVeOqp7SYALmr9ggbh99R2irKzsUrl4AwKqCfBM/N09e8Q7b+8QIQpqpSNxGG628s+Gyp/bo8uYN01WEALSBIXL1BHIewGAUS1fv2k9vfyE/vz82e6kc0mA2+Ilz4Qrb75FLG1cBt8BdnduAZTH4Xpfe/kV0aUwct+V2PoHSOXfkR2VP9fFpjX/K5t95ee9tBxwN5YDrsSCz7oIFIQAwPCWrX/4JpeIPkdva3XBTJav7iUBLru2rk7cfMstYu78ecmqgnMgkBYBHvB30oz/8KFDaV0vcxGr/DmML2/zy1bSbO2fabMgBGRKDNdLEygYAYAJNa55+BrDHX2J3k6TJmbhRjuWBLh6tbW1MUPBBQuvsXst0wId3OoUAu3t7WLXjnfE0SNHtFYpSE6DOJIfu/bNVtK0z99qc/a63a67Hv/nR/VYWFqtHe7PGwIFJQBwr5Hb4KnkNphiB4jF2epFVjdOpFgCug2NqqqrRNOKFWLR4sVYGshWZ+dQuWfPnBW73nlHcOQ+3alvYDA288+GlT+3jX97kyfUaduyq4DfHhIC7oYQoIAkskhIoOAEACZx3b33VxdFPM/R3oCbE5LRfIKjCU4l74EcWVB3Kq+oEE20bXDxddfBo6Bu2DmYP0ei3Ekzfn7VnaJRtvLvIpX/oO6iEubPmrhptM3Pqm//hAWoO6FOCHj0UVfjOyduJrlnPT33ZomooFDFseXQXl6FMVyihXZMbZ3tH3ljy5Yt6p06qGOCnBQSKEgBgPmt3LChJDxY8mPyFfBxhTwzyopnIbVVFYLXIHVrA7hipaWl5Fq4SVx/wxLh1bQ9MSMAuDirBHimv3PHDuXR+hI1amBwOLbFL6QwLHCishId55C+02ibn2xUv0T5ajxuSQiITXZMz1coRsoXqY51adSzk/QjT0WE6+vvbf1eRxrX45IcJlCwAgD32apVqzyDJdMfo7f848ha8pL74InkOKiMHJDYkTjs8LLljeKGpUtFUVGRHUWiDIcQYKM73sO/k1T9HbTWb0dij37nycJ/cHjEjuISlsE+OXiPP//ecizJCAFG0z2bfpe6+/+htspEFBswTePvygMtf7N9+/ZwjvFCddMkUNACQJwR/VD+mn4ofxr/nK1X3ofMHgTtekDx4M9CwFISBkpIKEDKXwK81n744CGxi9z2dmvczjeWIAsbXT19opP++H02E8/4eebPGoAcTbvJJmBNOjYB16/ZWOrzGJtp1v8Zy201xCujRvhzHz7/NNwVW4bpvAwgAFzsk+XrN/4+qb7+kT5mlQkvBfCSAC8N2LEswM3nqIOz5syOGQvOmj0bBoMXvxP58NJ+/rw4uP+AOHTooBimcLp2JZ7t86yfZ//ZTqX+kpi9Da/953jaHRgdvXvLY3/bl6gdsbDoZvRFOn99omsyPU6i21Gv6VrzzrbHmzO9F9c7m0BWBzunoWm8Z9P9hikep3rpt8xL0XhWV/JOAX542Zl4eWDBNQvEwkWLxaTJk+wsGmUpIsDheA8eOEh/B0RXJy3p2ph4fZ9d+fJ6vxNSRVlpzNrfLmHahjYnFAJig7+Ivk4z/2s01KPFY7pWQQjQQDaLWUIAuAJ+4/qH1hjC/CkdLrviVFY+8gOMlwU8HvtVlxxvYOGiRbG/yipEIMzKFyDNQkO0p5737R88sJ+s+U/brnJnFT+H7O3s7qUAPtlV98eR1ZAWjX87eZh2kSZgzVhNgObBP44QQkCcRJ68QgAYpyOX3btxoStq/JhOXTvOadsPseqS45KzS+FszWSmTJ0S0wrMJ+0ADAdt/wqMWyAPuqeaW8QBGvSPHT0mwpp89I9b+JiDwyMB2tPfRQ599MQIGFNUWm9dtIw2kcJyV5Y7QoZPq84SF10SAlbc94UJkZD3dcpjoUQ+md4CISBTYg6+HgJAgs5p/MQjfiMc+Cad/o0El9h+mH0HTGyoEf7iYtvLjhfI9gKz58wRCxcvErAXiFOx97WjvSM20z9Eav6hoSF7Cx9TWjgSEe2dPYKd+jgl0dh/eObUyQYZ/c13Sp001mPXubPnH+wZHvkFlWHH4B9vSkuFEb79tReebokfwGtuEoAAkKLflq9/aJMQ5rfpstIUl9p2uqK8VNSRl78iG5wIJWtUMQkiM2bOFNOmT4/9sedBJPUEAoGAOHO6VZwiRz2nWlpss+JP1BLeUdBN4Xq7ybo/Qu+dkuhh9kTUU/yl62fWlkaE91VaiLjOKXXTUY9wONJ1rKW1jzRBs3XknyjPCm/0g2c+dtBT6o3ca/zB+82JrsNx5xOAAJBGHzltSSBe5fIyf0wQcIpTk/Ly8kvCwLQZ0wV/RsqcAK/nnzlDA37LKdFKgz775s/2NjpuRSTCA3+/6O7tp3V+5wz8VLVhWg350t5tm5+I0/7il79Sn89CQDYH/2dvPTjH747yhKhFGOYqCAHxb13uvUIASLPPnLgkEK96Ge0U4K2DJcXOcurDGoG4doBf/X57HB3FueTKa5gs59vOnhWnacA/ffqUONd2zlEDLA02oqu3LxaxzykGfvG+NYVxwCPCG3Zu/f6B+LH4a74KARcHf3Lha86Jt9WOV575jxn840VCCIiTyMFXCAAZdpoTlwTiTWDf5iwIlNKrExOHK2ZBYDr9TZk2VfASQiEmnj2fa2uL+d7nWT4P/hFaT3da4i197MiH/fY7QQNxJR96eMVU/nuffSzhnsN8EwIcNvjHuwRCQJxEjr1CAJDoMKcuCcSbwpoAthEoK7XXh0C8/HRfOUhRTU21qK6pvfhaQ+9r8mbpYHR0VPR0d9Oafbfo6aFXet9D73t7ex054Mf7LUi7CXjg7xsYcuTAT/W8SuUfr/t4r/kiBJDRZdex5lanzPyvRA0h4EoiOfAZAoBkJzl5SSDeJLYNqK2udHLI03hVL3vlQEXV5IOAhQH+q+HXWvqjY04LYsQz4z5Sj8cGeB7oecDngZ7+hocTTkwva69TPowGg7SPv0/0D2ZvZ0EqFslU/snuzXUhIFuDf01x5NDPbz407eKafzLEfA5CQCpCDjsPAcBihzh5SSDeNN4twIJAPuyLLiPDQtYaVFRUUihln/DSH7/G//hzEQk+lx338ufkzh15HT5EA2CQDPCCsdegCIX480d/F85f+MxudXmg73P4bD7+HUj2OhIYjc34B2x0FZysPonOpaPyT3QvH89VISBbg/+EsujxH/1+aHbp+W5DNKftURJCQLIvocPOQQBQ0CFOXxKIN5GDDNVUVgjeRpjDQVHizcn4dayQwM6VeHCPD+oOs2rPuG2Z3sCai8GhEdHTPyCGshylL426Z6TyT5ZfrgkB2R78/SWu2BhhsAAAISDZVysnz0EAUNRtubAkEG8qexNkQ8HKijLBEQiz5V0wXh+82keAZ/vsuKef1vedtIc/CYH9bhH53HhW/knuSXoqV4SA7A3+kWM/+v3wnPjgH4cJISBOIn9eIQAo7kuOJUCOg75FYOcpzlpLdjwTriB/Arw8wLsIkPKPQIgi8vGgz0Z9bOCXI2mEfkdfGykL/P3+LVuCquvsdCHAaYN/nD+EgDiJ/HiFAKChH+eu/3JRpej7Y4L7Fcre2ab4Y9rv9XhIECiNCQO+FGvmY27DWwcS4Nn9ABnz9fUPiWHyJJhbyXjWYxq/qzvy3Bf+6NE6TzD6KrFRFjpXBWce/I+3tPaQz4W5KvJLN48JZePP/K+8H0LAlURy9zMEAI19d+OajbOiHuObFJ7zXo3FaMm6pKiIlghKYzsI2P8/kvMJ8Lo+r+fzTJ8N+py4dz8ZRXLd22yYxu/t2fbEM8muU3nOaUJA1gb/Uhr8/+BqtX8i1hACEpHJreMQAGzor+X3bPokCQH/QkXNsKE4pUXE7AXI0yBrBmAvoBStsswoNGxspt9HM34nOhRKo6Gs4v8Hb9nIX+3YsoVU//amTb/9lVrT5WVNwBJ7S768tFwZ/OO1hhAQJ5G7rxAAbOo7NhIUoZGv0oD6R1Skz6ZilRbD9gJsPFjqLyZ7gZKsByNS2rgcyowH+SEKwctheIeGA7m0rn81ZUO8Qn6Pf2fPtqcOX33SviMsBEQN7ytkH3uDfaV+VFKuDf7xmkMIiJPIzVcIADb3W+Oah69xuaP/RurO1TYXrbw43kroJ2EgJhSQQMDbDJHUE+AtimMHfHbYkwfpLD18/nD31s0/ckpbfvMPHq0ZDUVftVsI4MGfPPx105KNrYbDMd/+dx6bW7J8il+UyM9JIAQ45RuceT0gAGTOTMkdy9c99AWKpPUNymySkgwdkAkbEV7QDrBQUCI8HtgOyHRLlNbyR3h2z7N8muGPkIo/j1KYvvffLPJ4/9+3nvnugNPaxUJAMBx9heq11I66kTan62i2Bv94VL8ijzBvmE7myhAC7OhzJ5UBASCLvbFi/QMVYeH+S+qE36Fq5N1oyTsJWDvA2wv5FcaE43/Z2FiP9+fHZ/n8PtcM+MZv2VVH34pS2N53t23+4KozDjpwUQh4maq0TGe1HDH4xxsIISBOoqBeIQA4oLtvXPvgkqjL9e9UlZUOqI62KnBsAv7zka9/Fg6K6JWXDQrJERGH1uW9+KPscvjiK8/2edafx6mT+viPd7/wxOPUxpxo6P2/9afVbo+PNQFahABHDf7xLx6EgDiJgnmFAOCcrjYa123aROuPX6Uq2br/N5sIePDnpYO4QODz0fuLAkKuuivmwTwWU4AGeH4dvfgaJIc8BeZymPYiiv/wmt6v7XjxO93Z/J7JlH1RCGBNQKPM/YnuceTgH68shIA4iYJ4hQDgsG7esGGD+8RQyecNU/wZVW2xw6pna3XctOuABYO4QOAjbQEHNuKlBN6R4CLhIRuJ1fPkpCXmSjfEs/gxAzwP+CEKLFTgqU8I41vm/9/e3QfJTd93HP/+9vb8dD472IZgKLZ5KIZmkhoMpiQlPUgHm5RAhgxpJvUDLRnaCR0SkzTMJJmp0wFSMkkgDTMt/FNqaCm40+KQloeh5uikgQBnXxnc4Ab8/BCwje07P935dn/96ozsXXl3Je1KOkn73pkbraSfpN/v9Vtbn5W0UnH4gb6nHw/8FJk0mt3y1RUfKpXKTgi4LIr6OTt/veBvr4bEC6NYX9B1jF7w557z91uIEOAnlJv5Y/M/aG74Ym2ImX/d4huNFL6lW4nkP59YaztGK3eCgBMUCvrMEjcUjA59pjkffOebuvON3NmZHx/q+4ppzt30Tsy3J9/n9Px8FD2oO3v7gD028cG+Fx7WEJCPV1QhIBM7f7fLCAGuRK6HBIAMdO+li5Ys1J3ct3THc1UGqksV209gp1jzfds5/qG+px8+nMfmfxACnte2Xd5M+zK183cbSAhwJXI7JABkqGsvXbj4qtEgILIwQ9WmqnkVMLJJynLffjP1kbef+XGufqtYq8tuvu2uqRPGj3dCwIJa8+tNy+TO320MIcCVyOWQAJDBbl3w6SWXla1zasDeqNWnDzPYh5muspG39Bv/dycf2fJPvb29bXXBw2gIGDf+Of1Xd0WQPjy+89+2R88yzQ1SPqoyoc75+22UEOAnlNn57Dwy23V6LHLhso9IwX5Tf1f1h9qM3N1HIMNdk9eq92vD7nn9ivP+VVasKOe1kX7tChoCcrHzdzEIAa5EroYEgBx0p54auKDDFO6yRpZpczpz0CSakC6Bl23Z3NP33D/8e7qqNXa18QsBudr5u8yEAFciN0MCQG66Uo8IXPvH50ix9GW9kH2xNus3ctQ0mpK8wFHd5Gqxhb97/dlHepPffPq3WC8E5HLn73YHIcCVyMWQAJCLbvQ0YsWKwuUvb7zGFuwSvUTgczq3y1OCUQRqCVi9MdPPymJXyvCEVXn6KV+txkYxzRsC9J4Be97ZvG1PydqLolh/0HVEes7fb6OEAD+hzMwnAGSmq5qr6MeuXdKlN9e7SYPAUr0rm/MEwkJza2KpHAu8rdeRrOwo2cdeff7RTTluZyxNc0OA3jfi/Nzv/F1BQoArkekhASDT3Reu8ldev/Ts4ZJzesAsNWJ/K9zSlM6TgP7D32fFPFGwduWrz658OU9tG4u2LPrCV+fsHdj3jN6rI7/f/L2whACvSObGCQCZ67JoKnzpHyybb8p2iX4AvqhrPD2atbKWlAsc0/o9o09fWrnfTvlpO/x2P4n+uHLhrdOOFY69oNtK5BHCbpsSPezvbtQ7JAR4RTI1TgDIVHdFX9menp7iwKRZizr0qIB+e7lBtzA++q2wxrEVsK/pt/1HpXjs8azfm39sHU/delvv/F2OKELAJr2L9JbAj43YIsb2mOX9m90qMGxOgADQnFsul5r32Vs+1DlkP683OVmsYcB5NHExlw1ti0bZjfprkCek3LGy7/lH3mqLJifcSHb+FeCEgAqM7LwlAGSnrxKt6Sdu+JPuo0OlTxpjr9FA4Fw8+Nv6x+cl0V4ItbGdVuyLRsyaoi2seeXZRzaHWprCoQTY+dfgIgTUQEn3JP5DT3f/pKZ2Cz61dLrttL9npaCBQEOByMWpqVx7VsQ5Xtqrh/bXGFta8/qzj21oT4bkW93Tc8uEgxPLvbrlQLcDjqqGqTjn79cYQoCfUKrmEwBS1R3Zqcz8hYtn6nN4r9ZvnBoGNBBYOTc7tc9kTQf0AMxL6vxiQXf4rz732BvaCv31Hq+EBcxl1y19XLfp3H47sVcmdv6uBiHAlUj9kACQ+i7KRgV/Z9Etc0oFe7UehnbCgHOE4Kxs1Dy1tdTH6pr/1msx9Bu+rDl3ypG+VatWlVJb2zap2PxFy+7Q02I/SrK5mdr5uzCEAFci1UMCQKq7J7uVu2zR4rnWdFxjpDxPd2RztSXO35nZbVGsNT+kRhv01MoGvef+/xYK8l+Huw6/sn7VquFYt8rKQwlccd0fTSlJx0ZdaHqoBVsonMmdv9teQoArkdohASC1XZO/ijn/gZZtpwaB8lx9iqEOC3P1G64TDH5T/ybmr8VVLSrrJZRbpKw7eaM7e93hWylvGN9hNrz805U7qkoykkqBy65bdreeddHHcCfzyvTO3yUiBLgSqRwSAFLZLW1XKXPJp784qzAaDuxcY/WIgRMQjj9D3XmoUZY+p/u1vrqDt6M7eb3pjn6zL2+YfKjj7d7eR5wH7PDKpoBz7t8JajOTqH4udv4uFCHAlUjdMEv/saYOjwrFLzD/M7dNKpSGL9Qd6oX67XlG2Ui3XnjYbUy521rTrdOnaD7QoXj/dHrT9zFwLq47qH+DGj0GxNpB3eag/q5+UJ+kMKjn5Af16vtBPZIxYG1Bh/aAteWNI9ZseOP5R9/T5XjlTGDBoqVX6mfv50k0K1c7fxeMEOBKpGpIAEhVd1CZKAWcn2sdmGi6iwUNDCPD3SMiUwrGCQ9OYDBFZ4duO+xgh+7gdXxAn+Q2eHRoaHB97yo9J88V9lH2RdbXpd/+79E2fDPuduRy5++iEQJcidQMCQCp6QoqggACaRWYv2jpE8bI5+OsX653/i4cIcCVSMWwkIpaUAkEEEAgxQK684/1Z61tsfN3+ndoREz/VpEjzf/AxZ47Q2S2/gV7zRZreu398+YEK95epQgA7dXftBYBBJoTOKO5xfyXapudv0sRWQgI/GtMQoBr7xkSADwgjCKAAAI1BPbWmNbypLbb+btikYQAfYr5bEKAS9rMkADQjBrLIIBAuwlEfq+Gtt35u58cQoArMWZDAsCY0bNhBBDIjoBx7gAY2avtd/6uJCHAlRiTIQFgTNjZKAIIZElAb2n9H1HVl52/R5IQ4AFJbpQAkJw1W0IAgYwKzJl89GdadecRzC292PnX4SME1IGJdzIBIF5f1o4AAjkQOP4kRvNYK01h5++jRwjwAYp+NgEgelPWiAACORQoSeFebZbeNTL8i51/QDNCQECoaIoRAKJxZC0IIJBzgXXP/P1uff7E98I2k51/SDFCQEiw5osTAJq3Y0kEEGgzgfO6D39Xm/x80Gaz8w8q5SlHCPCAxDPKswDicWWtCCCQU4H5v3/bVNN59GVt3sWNmsjOv5FOwHmRPDtgt8iWwPdx2iLG9pjl/ZsD1jDTxTgCkOnuo/IIIJC0QN8LDx/okNK1ut136m2bnX89mZDTORIQEixccQJAOC9KI4AAAvKLZ/5xuyl1XK1PjT7lBkHs/CP+gBACIgY9uTpOAZy04B0CCCAQSmD+Z5bOMiXpFSvnOguy8w/FF64wpwPCeQUoTQAIgEQRBBBAoJ6AEwJkRF6a2lkeePqqX54/qaPcVa8s01sUIAS0CFi9OKcAqj0YQwABBEIJ9D29cutUM9Lzk9/9ZZGdfyi68IU5HRDerMESHAFogMMsBBBAIKiAvX/eHLGmV8vPDroM5ZoU4EhAk3DVixEAqj0YQwABBJoWIAQ0TRd+QUJAeDPPEgQADwijCCCAQCsChIBW9EIuSwgICVZdnABQ7cEYAggg0LIAIaBlwuArIAQEt/KUJAB4QBhFAAEEohAgBEShGHAdhICAUNXFCADVHowhgAACkQkQAiKj9F8RIcDfyFOCAOABYRQBBBCIUoAQEKWmz7oIAT5A1bMJANUejCGAAAKRCxACIietv0JCQH0bzxwCgAeEUQQQQCAOAUJAHKp11kkIqANTPZkAUO3BGAIIIBCbACEgNtpTV0wIONXEM4UA4AFhFAEEEIhTgBAQp65n3YQAD0j1KAGg2oMxBBBAIHYBQkDsxCc3QAg4aeF5RwDwgDCKAAIIJCFACEhC+YNtEAJqYhMAarIwEQEEEIhfgBAQv/GJLRACTlC4bwgArgRDBBBAYAwECAEJohMCqrAJAFUcjCCAAALJCxACEjQnBJzAJgCcoOANAgggMHYChIAE7QkBo9gEgAQ/c2wKAQQQaCRACGikE/E8QoAQACL+TLE6BBBAoBUBQkAreiGXbfMQQAAI+XmhOAIIIBC3ACEgbuGK9bdxCCAAVHwOeIsAAgikRYAQkGBPtGkIIAAk+BljUwgggEAYAUJAGK0Wy7ZhCCAAtPiZYXEEEEAgTgFCQJy6nnW3WQgoeJrPKAIIIIBAigTM8v7NYmyPVmlLiqqVz6oMjYjp3ypyZLjp9tlzTxeZNT3o8rPFmt7RkBd0iQjLcQQgQkxWhQACCMQlwJGAuGRrrDeKIwEbd4ts3Vtj5TUnbXFC3mjYqzk7nokEgHhcWSsCCCAQuQAhIHLS+itsgxBAAKjf/cxBAAEEUidACEiwS3IeAggACX6W2BQCCCAQhQAhIArFgOvIcQggAAT8DFAMAQQQSJMAISDB3shpCCAAJPgZYlMIIIBAlAKEgCg1fdaVwxBAAPDpc2YjgAACaRYgBCTYOzkLAQSABD87bAoBBBCIQ4AQEIdqnXXmKAQQAOr0MZMRQACBLAkQAhLsrZyEAAJAgp8ZNoUAAgjEKUAIiFPXs+4chAACgKdPGUUAAQSyLEAISLD3Mh4CCAAJflbYFAIIIJCEACEgCeUPtpHhEEAASPBzwqYQQACBpAQIAUlJ63YyGgIIAAl+RtgUAgggkKQAISBB7QyGAAJAgp8PNoUAAggkLUAISFA8YyGAAJDgZ4NNIYAAAmMhQAhIUD1DIYAAkODngk0hgAACYyVACEhQPiMhoJAgCZtCAAEEEBgjAbO8f7MY26Ob3zJGVWifzQ6NiOnfKnJkuOk22/NOF5k1Pejys8XKf9oHFwRewFkxASAoL+UQQACBjAsQAhLswMRDgDlPho/9i31ofmfQVhIAgkpRDgEEEMiBACEgwU5MPARIjxwq/03QFhIAgkpRDgEEEMiJACEgwY5MPgT8mf3hvC8HaSEXAQZRogwCCCCQQwEuDEywU5O9MFAvQjALzfK1axq1kADQSId5CCCAQM4FCAEJdnCyIeB9GSksMN/oe6deCzkFUE+G6QgggEAbCHA6IMFOjup0wJlTg1R6mhTL/2ZX9BTrFSYA1JNhOgIIINAmAoSABDs6ihBw4ZkiUycGqfRHZcqBL9UryCmAejJMRwABBNpMgNMBCXZ4q6cDhvU0f5/e0mHomF+l35XxwxeY29cf9BbkCIBXhHEEEECgTQU4EpBgx7d6JGBcUexHzxbp8N2Nf1iOjv96rZZxBKCWCtMQQACBNhbgSECCnd/qkYDdg2LW7/Cr8CEZKV5gvvHarysL+kaHysK8RwABBBDIvwBHAhLs41aPBJzeLTLT96LALimO/KW3VQQArwjjCCCAAAJCCEjwQ9BiCLBz9LkBBd8D+l+yD3xsbmWrCACVGrxHAAEEEDghQAg4QRH/m1ZCgJ5GkLNP86tjUcqFv6osRACo1OA9AggggECVACGgiiPeEScE/M82keFS6O1Y58mBxQ6f5cwN+rCgSW4hAoArwRABBBBAoKYAIaAmSzwTjx7Ti/q2i5RtuPV3doidNc1vmQlyuHStW4gA4EowRAABBBCoK0AIqEsT/YwDR8T86t3w63VOA+jPAxu/Cje68wkArgRDBBBAAIGGAoSAhjzRzty1X2Sn/oV5OfcE8LtNsLXX2ydvHj1XQAAIg0tZBBBAoM0FCAHJfQDMpt0iI+VQG7QzJvuVnyHb3/m4U4gA4EfFfAQQQACBKgFCQBVHfCPHSmK27Q23/m59RsA4v4sB7ehpAAJAOFpKI4AAAgioACEgoY/B9n36q4CR4BtzbgcwzfcowGgA8L1zQPCtUhIBBBBAoN0EuG1wAj1+zjSx558RfEN79PbAb/rcHtgUz+cIQHBSSiKAAAIIeAQ4EuABiWNUd+ihXqd1BbgzYGkOASCUKoURQAABBLwChACvSMTjR/SRv4eHg6/U+TVA9wSf8uWZBAAfImYjgAACCPgLEAL8jVoqEfYogN/9AKycRQBoqUdYGAEEEEDAFSAEuBLRD837h8Kt1C8A6DMECQDhSCmNAAIIINBAgBDQAKeVWXqL4DAv6xcAjOEIQBhQyiKAAAII+AsQAvyNQpcI81NAZ+V+AaDMEYDQfcACCCCAAAL+AoQAf6NQJZyHA+mNgQK//G4GZLgGILAlBRFAAAEEwgkQAsJ5+ZYOcxTA7wgA1wD4clMAAQQQQKAFAUJAC3jeRU2Ie/f5P024xEWAXmDGEUAAAQQiFSAERMTpd1i/cjO+RwvMLgJAJRjvEUAAAf/IO0QAAAZKSURBVARiESAEtMha0G//Rb+H/FRswzcAyE4CQIUXbxFAAAEE4hMgBLRgO74YamHjGwAsRwBCiVIYAQQQQKAlAUJAk3wTx4VbcMj3CYIEgHCilEYAAQQQaFWAEBBe0E73fcRv9Ur9jgBYTgFUgzGGAAIIIJCIACEgJHPYADDkc+fAgnAEIGQXUBwBBBBAICIBQkBAyK7xIhM6AxbWYs4Ngw4NNS7PEYDGPsxFAAEEEIhXgBDg72vP6PYvVFli70ERv/sA2OJGfgVQicZ7BBBAAIHEBQgBDcg79ad/Z09rUODUWWaPBoBGL2veNF97bRsBoBES8xBAAAEEEhEgBNRmtrOn6+//Q+yqnWcG7PN5dLCxTzlbC7HW2pVjKgIIIIAAAlEIEAI8is55/7NO80z0Gd1/WKRUblyobAgAjYWYiwACCCCQtAAh4KS4veDD+jU9xP3/dVGzZ/DkCmq/22a+vrbPmcURgNpATEUAAQQQGCMBQoBewzdnhsiMkL/9d67+f2/Ar9dWuwUIAK4EQwQQQACB1Ai0dQg4Xa/6dwJAyJfZuldkxOfwv5XRw//OqgkAIYEpjgACCCCQjEBbhgD9zb+9aGZ4YOfWvzv2NV7OyD4ZnPqSW4gA4EowRAABBBBInUBbhQBjxF6sO/+O8Ltms3mPiPMLgMavfzYrek88JCD8VhqvnLkIIIAAAghEKtA2IeAc/b3/5Anh7Q4Pi/z6gN9yh2VY7q4sRACo1OA9AggggEAqBdohBNhpXU3Zm0279apBv2//5gFz17qdlRsgAFRq8B4BBBBAILUCuQ8Bk/We/2FfO/eL7Pb96d8eKXbe5101AcArwjgCCCCAQGoFch0C/K7g9/aK3vTH/Opd79Qa4/Zuc8cvTvl9IAGgBhWTEEAAAQTSK5DbEHDQ5wl+lV1y9JiY9TsCHPqXTTJw7G8rF3XfEwBcCYYIIIAAApkRyGMIMDt9fsbn9o7e6te8uf34Y3/daXWH9ttmxXq9SvDUFwHgVBOmIIAAAghkQCB3IeB9fYjPLj2n7/Myb+0SCXa04OeyvP/xeqsjANSTYToCCCCAQOoF8hYCzP+9K2ajXtVf6zf9R4bF9G8NctGf0287ZKT4OefWAvU6MdxTBuqthekIIIAAAgiMoYC9f94csaZXqzB7DKsR3aadJwGe1iW2W+8LoPf4N4NHRd4/WDsYnLrVI1I2V7kP/Tl19vEpBIB6MkxHAAEEEMiUQO5CQLP61nzBfG3tE36LcwrAT4j5CCCAAAKZEMjb6YCm0I29J8jO31k3RwCaEmYhBBBAAIG0CrTtkQBrnpI7197U6Lx/ZZ9xBKBSg/cIIIAAApkXOHkkwG7MfGMCN8CskwlDS4Lu/J3VEgAC41IQAQQQQCArAqMhYNy4BVrfE4+/zUrdm6jnahk/9Elz+3q9SjD4i1MAwa0oiQACCCCQMQH70PxOOVz+sf4Y7k8zVvWA1TX3yvK13w7zzd9dMQHAlWCIAAIIIJBbAXv/pbfrE/Me0AYWc9LII3oV361m+bq6N/rxaycBwE+I+QgggAACuRCwP7jkU7rTfFIbMy3jDdKHAMhnzZ3rXm+lHQSAVvRYFgEEEEAgUwL2h5deoE/QeUor/ZFMVfxkZV8RU7jJLO/bdXJSc++4CLA5N5ZCAAEEEMiggLlz7dvSVbhEjPlzrf57GWrCVr2OYZkMrPtEFDt/p90cAchQ71NVBBBAAIHoBOx9c7ulOOkvdE94p661K7o1R7qm93Vt90px8EFzx9shnhfsXwcCgL8RJRBAAAEEcixgv3f5mdI5skK/Yd+qzUzLRYJHNZj8SE9X/LX+pNH/EYFN9A8BoAk0FkEAAQQQyJ+A/f78i6RQ+o4eHL9BW6dP4RmT14AGkSels/Qdc8cb2+OsAQEgTl3WjQACCCCQOQG9d8AkOVy6Vu+Vd6P+dPB6bcCMmBuxQ7/t/0SvS1gt+4deNCvWD8e8vdHVEwCSUGYbCCCAAAKZFLBP3twh29/5uB6Kv1Eb4PzprwgieFnzphTKq3XHv1q+0v96MzfyabUWBIBWBVkeAQQQQKBtBOz9l58nUpojUp6ph+rP0obP1G/uZ0nZGX4wrgX0NILzM72dGhyc4S4tu1Nvvn982FHYZL7St1Wnj+nr/wFNKWk1E2L03QAAAABJRU5ErkJggg==;shadow=1;fontFamily=Verdana;" parent="1" vertex="1">
          <mxGeometry x="1475" y="-752" width="102" height="102" as="geometry" />
        </mxCell>
      </root>
    </mxGraphModel>
  </diagram>
</mxfile>
